<?xml version="1.0" encoding="utf-8"?>
<!-- Generator: Adobe Illustrator 18.0.0, SVG Export Plug-In . SVG Version: 6.00 Build 0)  -->
<!DOCTYPE svg PUBLIC "-//W3C//DTD SVG 1.1//EN" "http://www.w3.org/Graphics/SVG/1.1/DTD/svg11.dtd">
<svg version="1.1" id="Layer_1" xmlns="http://www.w3.org/2000/svg" xmlns:xlink="http://www.w3.org/1999/xlink" x="0px" y="0px"
	 viewBox="0 0 400 400" enable-background="new 0 0 400 400" xml:space="preserve">
<path fill="#AD4E26" d="M322,215.9c-7.5,3.6-12.6,9.7-17,16.4c-5.5,8.5-10.7,17.2-16.1,25.8c-7.1,11.3-14.5,22.3-24.1,31.6
	c-13.8,13.5-30.1,22.7-48.3,28.7c-1.6,0.5-3.1,1.1-4.7,1.6c-1.2,1.2-2.7,1.4-4.3,0.9c-3.8,0.3-7.6,0.8-11.4,1
	c-9.5,0.5-18.8-1.3-28-3.8c-1.7,0.8-3,0-4.2-1.1c-1.5-0.8-2.9-1.6-4.4-2.3c-31.2-14.8-49.2-39.9-56.4-73.1
	c-1.6-7.6-2.3-15.4-2.9-23.2c-0.8-10.3-2.5-20.4-5-30.3c8.2-10.6,19.4-17.4,30.7-24.1c13.7-3.9,27.9-5.3,41.8-8.2
	c13.9-0.6,27.7-0.4,41.5,0.9c11.6,1.1,22.9,3.5,33.7,7.8c2.6,1,5.5,1.5,7.4,3.8c-1,7.2-2.1,14.4-3,21.7c-0.9,6.8-0.7,13.6,0.9,20.3
	c0.4,1.7,1.3,3.4,2.2,5c1.8,3.2,4.7,4.8,8.3,4.1c2.4-0.4,4.9-1,7-2.2c6.3-3.7,11.9-8.1,15.6-14.9c6.3-11.5,15.4-20.4,27.7-25.4
	c10-4.1,19.7-3.9,28.8,2.6c0.8,0.8,1,1.8,0.8,2.7c-1.2,5.2,0.3,9.8,3.2,14.1c-2.3,3.3-4.6,6.6-7,9.9
	C331.2,209.9,326.7,213.2,322,215.9z"/>
<path fill="#ED6525" d="M210,158c-14.3-0.3-28.7-0.7-43-1c-0.8-1-1-2-0.1-3.1c2-16.6,4-33.3,5.9-49.9c0.6-5.1,1-10.3,1.2-15.4
	c0.5-16.8,2-33.5,4.2-50.1c1-7.1,4-13.2,9-18.5c6.1-6.3,17.6-5.5,22.6,3.1c2.7,4.5,4.1,9.5,4.1,14.7c0,9.3-0.5,18.6-0.8,27.9
	c-0.4,11.3-1,22.6-1.3,33.9c-0.4,16.3-0.7,32.6-1,48.9C210.9,149.9,210.9,156.5,210,158z"/>
<path fill="#FEBF15" d="M166.8,153.8c0,1,0.1,2.1,0.1,3.1c-4.3,1-8.6,2.1-12.9,2.9c-8.4,1.6-16.8,3.2-25.2,4.7
	c-1.3,0.2-2.6,0.3-3.9,0.5c-0.7-0.5-1.6-0.9-0.6-2c0.2-1.3,0.6-2.6,0.5-3.8c-0.9-14.2-1.7-28.5-3-42.7c-0.9-9.9-2.5-19.7-3.5-29.6
	c-1-10.1-2.2-20.2-0.4-30.3c1.2-6.3,3.7-11.7,10.1-14.4c6.2-2.6,11.7-1.5,15.3,4.1c2.7,4.1,5.1,8.7,6.4,13.3c2.2,8,3.7,16.1,5,24.3
	c2.7,16,5,32.1,7.6,48.1c1.1,6.7,2.4,13.4,3.6,20C166.2,152.8,166.6,153.3,166.8,153.8z"/>
<path fill="#BF2426" d="M210,158c0.6-1.7,1.2-3.4,1.9-5c2-8.9,4.3-17.8,6.1-26.7c3.1-15,6-30,9-44.9c1.5-7.4,4.2-14.4,8-20.8
	c1.7-2.8,3.6-5.6,6-7.9c7.7-7.6,18.9-5.4,23.3,4.6c1,2.4,1.5,5.1,1.7,7.7c0.9,10.4-1.3,20.5-3.1,30.7c-3.1,17.5-6,35-9,52.6
	c-1.1,6.7-2.4,13.3-3.6,20c-4.8-1.6-9.6-3.2-14.5-4.7c-7-2.3-14-4.6-21.6-4.5C212.8,158.9,211.4,158.3,210,158z"/>
<path fill="#573715" d="M124.3,163.1c0.2,0.7,0.4,1.3,0.6,2c-3.4,2.5-6.6,5.3-10.2,7.4c-5.7,3.4-10.7,7.6-15.3,12.4
	c-1.2,1.3-2.8,2.1-4.2,3.2c-7.6-21.9-15.3-43.7-22.8-65.7c-1.8-5.3-3.1-10.8-4.3-16.3C65.8,95.4,76,86.1,86.4,89.3
	c3.2,1,5.5,3.1,6.9,6c4.3,8.6,8.6,17.2,12.6,25.9C112.2,135.1,118.2,149.1,124.3,163.1z"/>
<path fill="#62411E" d="M207.5,320.8c1.4-0.3,2.9-0.6,4.3-0.9c0.4,10.6,0.8,21.2,1.1,31.9c0.1,2,0.7,3.4,1.8,5
	c3,4.2,5.7,8.5,8.5,12.8c0.5,0.8,1.1,1.8,1.2,2.7c0,0.8-0.5,1.9-1.1,2.4c-0.3,0.3-1.7-0.1-2.2-0.6c-0.8-0.8-1.3-1.9-1.9-2.9
	c-1.9-3.1-3.7-6.2-6.5-9c-0.3,2.4-0.5,4.8-0.8,7.2c-0.4,3.1-0.8,6.3-1.2,9.4c-0.2,1.6-0.9,3.3-2.7,3c-2.1-0.3-1.9-2.2-1.6-4
	c0.8-5.1,1.3-10.2,1.9-15.2c-0.3-0.2-0.6-0.3-0.9-0.5c-2.8,2.8-5.6,5.7-8.4,8.5c-0.8,0.8-1.5,1.9-2.5,2.4c-0.7,0.3-2.2,0.2-2.6-0.3
	c-0.5-0.5-0.5-1.9-0.1-2.6c0.5-1,1.6-1.7,2.4-2.5c3.2-3.4,6.4-6.8,9.6-10.1c1.9-2,2.8-4.4,2.7-7.2
	C208.2,340.4,207.8,330.6,207.5,320.8z"/>
<path fill="#62411E" d="M163.9,317c1.4,0.4,2.8,0.7,4.2,1.1c0.1,4.6,0.3,9.3,0.3,13.9c0,6.2,0,12.3-0.4,18.4c-0.2,3.4,0.9,6,2.8,8.7
	c2.5,3.5,4.5,7.3,6.7,11.1c0.4,0.7,0.7,1.5,1.1,2.3c0.7,1.4,0.5,2.8-1,3.3c-0.7,0.2-2.1-0.7-2.6-1.4c-1-1.3-1.4-3-2.3-4.4
	c-1.4-2.4-2.9-4.7-5-8.1c-1,6.2-1.8,11.3-2.7,16.4c-0.3,1.4-0.8,2.9-1.5,4.1c-0.2,0.3-2.2,0.1-2.3-0.2c-0.4-1.2-0.6-2.5-0.4-3.8
	c0.8-5.2,1.7-10.4,1.8-16c-3.3,3.1-6.6,6.3-10,9.4c-1.2,1.1-2.5,3-4.1,1.2c-1.4-1.5,0-3,1.2-4.2c3.7-3.6,7.3-7.2,11.1-10.8
	c2.3-2.2,3.4-4.7,3.3-8C163.8,339,163.9,328,163.9,317z"/>
<path fill="#C02C29" d="M322,215.9c3.6-4.4,8.1-7.5,13-10c2.8,2.3,3.2,5.3,2.6,8.6c-0.8,4.7-1.8,9.4-2.7,14.1
	c-0.2,1.1-0.6,2.3-1.2,3.3c-1,1.8-2.3,3.3-4.8,2.7c-3-0.7-4.5-2.3-4.6-5c-0.1-1-0.1-2,0.2-3C325.6,222.6,324.5,219.1,322,215.9z"/>
<path fill="#FEBF15" d="M341.9,196c-4.5-1.3-4.3-5.3-4.8-8.6c-0.4-2.6,0.5-5.5,0.8-8.2c3.1,0.3,6.2,0.5,9.3,0.9
	c3.8,0.4,7.5,1,12.3,1.6C353.3,186.8,347.6,191.4,341.9,196z"/>
<path fill="#563512" d="M168,235.3c-7.8,0.8-15.1,1.5-22.4,2.2c-0.1-0.4-0.3-0.8-0.4-1.2c1.6-1,3.2-1.9,4.8-2.9
	c11.5-7.1,22.8-14.7,34.6-21.3c10.1-5.6,20.8-6.3,30.9,0.7c13,8.9,14.5,27,0.9,38c-9.2,7.4-19.9,11.7-31,14.8
	c-9.6,2.7-19.5,4.3-29.3,6.3c-0.8,0.2-1.6,0-3.6,0c4.7-3.6,8.7-6.4,12.4-9.4c3.8-3.1,7.5-6.5,11-10.1c-11.7,2.1-23.1,5.9-35.8,4.3
	C149.4,249.4,159.2,243.3,168,235.3z"/>
<path fill="#170A02" d="M319.3,196c-3.4-0.1-5.4-2.3-5.3-5.7c0.1-2.8,2.8-5.4,5.4-5.3c3,0.2,5.6,3,5.5,5.9
	C324.8,193.6,322.1,196,319.3,196z"/>
</svg>
