<?xml version="1.0" standalone="no"?>
<!DOCTYPE svg PUBLIC "-//W3C//DTD SVG 1.1//EN" "http://www.w3.org/Graphics/SVG/1.1/DTD/svg11.dtd" >
<svg xmlns="http://www.w3.org/2000/svg">
<metadata></metadata>
<defs>
<font id="amatic_scbold" horiz-adv-x="709" >
<font-face units-per-em="2048" ascent="1638" descent="-410" />
<missing-glyph horiz-adv-x="290" />
<glyph horiz-adv-x="0" />
<glyph unicode="&#xd;" horiz-adv-x="682" />
<glyph unicode=" "  horiz-adv-x="290" />
<glyph unicode="&#x09;" horiz-adv-x="290" />
<glyph unicode="&#xa0;" horiz-adv-x="290" />
<glyph unicode="!" horiz-adv-x="345" d="M70 33q0 35 25 63.5t62 28.5t59.5 -29t22.5 -70q0 -72 -91 -78v14q-50 13 -78 71zM117 1493q0 32 27 55.5t54 23.5t41.5 -14.5t14.5 -35.5q0 -164 -25.5 -490t-25.5 -489l-4 -113q0 -127 -32 -127t-32 179l-1 339z" />
<glyph unicode="&#x22;" horiz-adv-x="489" d="M103 1518q0 33 13 46.5t28 13.5q45 0 50 -67q0 -89 -23.5 -203.5t-51.5 -114.5q-5 0 -10.5 146t-5.5 179zM289 1531q0 20 19.5 33.5t43 13.5t32.5 -47q-3 -98 -20 -218t-39 -120q-9 0 -22.5 131t-13.5 207z" />
<glyph unicode="#" horiz-adv-x="795" d="M58 637q0 46 96 46l62 -2q19 109 31 267q-39 -3 -51 -3q-97 0 -97 59v43l93 -1q32 0 63 3q4 35 18 125q27 175 27 283l-1 37q0 33 10.5 53t42.5 20l36 -47q0 -80 -17 -233.5t-18 -228.5q17 -4 52 -4h39q63 0 95 2q20 119 36.5 272.5t23.5 206.5q24 31 46 31t38.5 -12 t16.5 -35.5t-9.5 -92.5t-20 -129.5t-25.5 -141t-18 -99.5h66l43 -36q-14 -61 -54 -61h-67q-23 -106 -25 -261l21 1q85 0 85 -62q0 -51 -77 -51h-6q-9 -102 -43 -307.5t-43 -317.5q-2 -23 -21 -38t-41 -15q-41 0 -41 45q0 163 27.5 358.5t35.5 269.5q-45 4 -136 4h-50 q-7 -42 -26 -218q-45 -413 -85 -447q-5 -4 -16.5 -4t-26.5 14t-15 30q0 166 32 360.5t39 255.5q-45 -5 -60 -5q-85 0 -85 66zM309 686q8 -1 70.5 -1t115.5 -4q20 178 21 271q-34 8 -88.5 8t-86.5 -6q-26 -95 -32 -268z" />
<glyph unicode="$" horiz-adv-x="542" d="M66 1265q0 91 27 162.5t86 90.5q-6 48 -6 66q0 57 31 57q31 -3 34 -24q3 -17 3 -52.5t7 -35.5q36 0 78 -27q4 -5 21.5 -21t28.5 -27q31 -31 31 -55q0 -27 -11.5 -37t-28.5 -10t-37.5 15t-43 38t-40.5 34l3 -146q0 -86 10 -177.5t11 -105.5q10 2 63 -122.5t83 -205.5 q74 -195 74 -248t-10.5 -89.5t-27 -62t-37.5 -46.5q-37 -38 -79 -56q6 -109 6 -116q0 -80 -38 -80t-38 61v118q-89 0 -137.5 24.5t-48.5 93.5q0 17 12.5 30t29 13t27 -11.5t21 -32.5t17.5 -30l35 -7l44 5q-2 123 -22 447l-8 115q-18 39 -47 94t-47.5 91.5t-37.5 84.5 q-38 94 -38 185zM146 1286.5q0 -91.5 66 -202.5q-14 102 -24 334q-42 -40 -42 -131.5zM304 735q2 -62 12 -221t12 -245q64 54 64 113.5t-16 128.5q-21 94 -45 154.5t-27 69.5z" />
<glyph unicode="%" horiz-adv-x="1127" d="M72 1154q0 52 8 110.5t25 127t53 115t83 46.5q229 0 229 -406q0 -17 1 -60t1.5 -71.5t-2.5 -72.5t-9.5 -74t-21.5 -64.5t-37 -55.5t-56.5 -35t-74 -14t-68.5 13.5t-48.5 40t-34.5 55.5t-23.5 71.5t-14 74.5t-7.5 78q-3 69 -3 121zM171 1179q0 -36 1 -63.5t4 -72.5 t9.5 -85t16.5 -77q20 -81 62 -81q112 0 112 292q0 357 -128 357q-25 0 -51 -117t-26 -153zM347 78.5q0 24.5 13.5 103.5t42 197.5t53.5 220.5t67 255.5t62 228.5t59 213t39.5 154.5t15.5 50.5t39.5 34t40 -13.5t15.5 -52t-33.5 -184.5t-82 -329t-58.5 -225 q-70 -303 -192 -696q-8 -26 -27 -26t-36.5 22t-17.5 46.5zM676 451.5q0 42.5 3 98.5t15.5 104.5t31.5 91.5q43 92 134 92q187 0 197 -331q1 -33 1 -78v-51q0 -132 -31 -217.5t-76.5 -122t-96 -36.5t-80 29t-47 71.5t-29.5 95.5q-19 89 -20.5 150t-1.5 103.5zM777 366 q0 -44 22.5 -147t45.5 -103q113 0 113 270v48q0 299 -104 299q-28 0 -47.5 -48.5t-24.5 -111.5q-15 -168 -5 -207z" />
<glyph unicode="&#x26;" horiz-adv-x="937" d="M78 538q0 81 10 151t37 144q38 104 132 292l-14 281v170q0 80 27 116t72 36t101.5 -36t56.5 -92l-6 -104q0 -21 5 -44q-17 -38 -46.5 -130t-43.5 -119t-28 -48q-32 -48 -32 -69q0 -98 75.5 -351.5t130.5 -316.5q62 147 62 362v9q-35 0 -51 35v52q51 0 133 7.5t116 18.5 q58 -12 58 -54q0 -56 -113 -56h-51q0 -61 -5 -138q21 2 -19.5 -129t-59.5 -170q61 -63 130 -63l83 6l38 -31q0 -41 -28.5 -54.5t-75.5 -13.5q-95 0 -197 77q-110 -78 -203.5 -78t-158.5 52.5t-100 129.5t-35 158zM172 570q0 -157 83 -240q47 -47 116 -47q31 0 77.5 17 t66.5 38q-7 10 -43 48t-72 108t-60 164q-33 126 -63 311q-105 -172 -105 -399zM333 1471l2 -185v-23q27 58 52 139t25 129q0 97 -48 99q-14 -12 -31 -50v-109z" />
<glyph unicode="'" horiz-adv-x="318" d="M100 1531q0 20 19.5 33.5t41.5 13.5q37 0 54 -47v-6l-4 -14q0 -89 -23.5 -203.5t-51.5 -114.5q-9 0 -22.5 131t-13.5 207z" />
<glyph unicode="(" horiz-adv-x="467" d="M80 822.5q0 111.5 15 230.5t41.5 256.5t71 239.5t93.5 102h45q0 -66 -56 -193q-108 -249 -108 -550q0 -768 184 -1096q44 -78 58 -130q-17 -43 -58 -43q-54 0 -103 112t-81 273.5t-56 341.5q-46 345 -46 456.5z" />
<glyph unicode=")" horiz-adv-x="482" d="M44 -257q0 19 16.5 54t40.5 77q94 166 148.5 455.5t54.5 464.5q0 458 -120 681q-45 84 -45 135v11h37q58 0 105 -104t72 -249q51 -294 53 -451v-2q0 -137 -45 -381t-81 -390.5t-85 -246.5t-97 -100q-21 0 -37.5 13.5t-16.5 32.5z" />
<glyph unicode="*" horiz-adv-x="893" d="M63 1140q0 29 13.5 43.5t32.5 14.5h241l-31 62q-103 206 -103 234q0 53 56 53q43 0 112 -198q29 -81 34 -91q66 232 108 284q20 25 40 25t37.5 -16.5t17.5 -30.5t-1.5 -20.5t-3.5 -11.5t-5.5 -11.5t-6 -10.5t-7.5 -11t-19.5 -29.5t-40.5 -115.5t-35 -116q38 -5 88 -5 l135 10q104 0 104 -62q0 -52 -71 -52q-45 0 -133 4.5t-130 4.5q6 -17 77 -160t71 -173t-24 -50t-46 -20l-140 320q-9 -24 -28 -77t-31 -86q-33 -88 -70 -151h-49l-44 39v6q1 39 72 182t81 172h-183.5t-76.5 1t-20 5q-21 9 -21 38z" />
<glyph unicode="+" horiz-adv-x="740" d="M84 655q0 21 12.5 37t33.5 16l121 -7q26 0 47 4l-12 150q0 113 66 113q24 0 42 -17.5t18 -41.5v-25q0 -6 -0.5 -30.5t0 -48t1.5 -48.5q2 -56 18 -56l119 8q106 0 106 -62q0 -24 -17 -40t-41 -16l-121 11q-65 0 -65 -49l19 -164q0 -25 -20.5 -40.5t-45.5 -15.5t-46 14.5 t-21 37.5l6 199v15l-133 -9q-87 0 -87 65z" />
<glyph unicode="," horiz-adv-x="425" d="M82 -130q8 8 40 34q67 54 74 92q-59 43 -59 90.5t31.5 72.5t69 25t58.5 -22.5t36 -63.5v-7l-3 -14q0 -47 -26 -112t-71 -116t-89 -51h-61v72z" />
<glyph unicode="-" horiz-adv-x="649" d="M104 760q0 23 119 29q179 9 230 9q93 0 93 -59q0 -23 -119 -29q-179 -9 -231 -9q-92 0 -92 59z" />
<glyph unicode="." horiz-adv-x="355" d="M105 42.5q0 29.5 23 53.5t53 24t52 -24t22 -55.5t-23 -52t-54.5 -20.5t-52 22.5t-20.5 52z" />
<glyph unicode="/" horiz-adv-x="567" d="M64 30q0 136 65.5 407t152 579.5t99 373.5t15.5 80.5t4.5 22.5t6 20.5t9.5 20.5q15 19 35.5 19t37 -14t16.5 -40t-6.5 -57t-18.5 -72q-49 -158 -248 -1078q-2 -7 -10.5 -54.5t-17 -86t-22.5 -83.5q-30 -99 -72 -99q-46 28 -46 61z" />
<glyph unicode="0" horiz-adv-x="644" d="M98 804v429q0 173 26 233q28 66 76 86q28 11 62 11t71 -21t54.5 -35.5t31 -33t24 -32.5t18.5 -38t12.5 -37t10 -42.5t6.5 -40.5q10 -68 13 -92.5t14 -105t16 -117t13 -107t12 -117.5q10 -118 10 -223q0 -514 -225 -514q-54 0 -96.5 47t-68 126.5t-43 165t-25.5 184.5 q-12 164 -12 274zM184 1338l11 -348l22 -200q0 -162 17 -338q34 -352 129 -352q32 0 55.5 61t33.5 148q21 170 21 259q0 212 -74 686q-16 102 -54 153t-75.5 51t-61.5 -33.5t-24 -86.5z" />
<glyph unicode="1" horiz-adv-x="602" d="M55 1521q0 54 165 54q72 0 90 -34q-4 -7 -0.5 -43t3.5 -71t15.5 -160t15.5 -237t22.5 -435.5t22.5 -485.5v-13q48 6 75 6v1q86 0 86 -51q0 -60 -233 -60l-61 -1q-38 0 -60.5 11t-22.5 45v44q65 -5 72 -5q45 0 45 34q0 310 -35 804q-3 43 -11 121q-16 172 -16 263l3 75 q0 96 -71 96l-47 -2q-58 0 -58 44z" />
<glyph unicode="2" horiz-adv-x="578" d="M56 47v8q43 51 72 134.5t41 109.5q117 259 174 475t57 467t-98 259q-33 -18 -46 -98q-11 -75 -60.5 -75t-49.5 63q0 99 58 162q31 34 74 34v1q107 0 154 -66q36 -49 45 -88t12.5 -62t5.5 -59q3 -54 3 -111q0 -177 -44.5 -400.5t-113.5 -378.5q-12 -28 -72 -147.5 t-83 -188.5q124 21 232 21l62 -52l-36 -51l-312 -19q-29 0 -52 17t-23 45z" />
<glyph unicode="3" horiz-adv-x="600" d="M53 1416q28 69 78.5 113t114.5 44t111 -51q44 -1 71.5 -156t27.5 -213.5t-9.5 -87.5t-19 -44.5t-32.5 -48.5t-31 -45q126 -75 163 -425q8 -76 8 -131t-2 -90.5t-8.5 -83.5t-21 -83t-37.5 -68q-46 -66 -143 -66q-77 0 -114 31.5t-37 64.5v13h34q11 -2 28.5 -3.5t26.5 -2.5 q21 -2 46 -19q125 5 125 230q0 300 -54 434q-27 66 -71 121q-4 -1 -19.5 -1t-53.5 17v24q0 31 42 80q78 93 78 181q0 79 -14 163q-27 164 -93 164q-25 0 -41.5 -18.5t-23.5 -40t-24.5 -40t-43 -18.5t-41.5 16.5t-20 39.5z" />
<glyph unicode="4" horiz-adv-x="554" d="M89 512q0 46 9 79q-9 48 -9 116.5t15.5 209.5t15.5 207v379q0 40 39 40q23 0 41.5 -14t18.5 -37l-9 -159l-19 -711q0 -24 3 -46q42 1 92 11l-17 573q0 21 16 33.5t33 12.5l42 -36v-129q0 -284 26 -445l59 5q61 0 61 -44q0 -30 -17.5 -40t-57.5 -10t-40 -18 q0 -69 5.5 -190t15.5 -144q-4 -24 -4 -43.5t10 -35.5v-37q0 -77 -49 -77q-31 0 -46 31.5t-15 65.5v7q7 24 7 74l-15 199l2 89q0 35 -4 63l-128 -11v-1q-39 0 -81 33z" />
<glyph unicode="5" horiz-adv-x="578" d="M64 1540l35 34h167q62 0 73.5 -16.5t11.5 -33.5v-11l-38 -31h-44v-5h-94q4 -112 40 -475q5 -1 39.5 -4t48.5 -6q51 -9 78 -27q47 -32 78 -144q50 -181 50 -387q0 -175 -10 -215t-22.5 -77t-30.5 -64q-42 -61 -110 -114l-35 -1q-112 0 -112 58q0 23 19.5 34.5t46.5 11.5 t50 -17q49 17 77.5 112t28.5 166q0 120 -18 276q-36 310 -108 310h-40v-7l-67 -16q-49 0 -63 39q-12 33 -12 78l11 104q0 128 -50 428z" />
<glyph unicode="6" horiz-adv-x="531" d="M91 880q0 706 215 706q15 0 30.5 -12.5t15.5 -34t-23 -40t-52 -24.5q-35 -36 -57 -214t-28 -312q16 3 47 3t69.5 -32t63 -81t42.5 -119.5t27 -133.5t15 -139q7 -104 7 -179.5t-2 -105.5t-11.5 -66t-26.5 -58t-48 -37t-75.5 -15t-76.5 22t-48.5 53.5t-27.5 79.5 t-13.5 86.5t-5.5 89.5t-6 74q-31 253 -31 489zM191 770q0 -193 49 -563q1 -7 3 -28.5t3.5 -31.5t6.5 -27t12 -25q19 -22 51 -22q51 0 51 137t-18 312q-35 344 -115 360q-27 -20 -35 -46t-8 -66z" />
<glyph unicode="7" horiz-adv-x="465" d="M66 1549q0 33 188 33h38q55 0 76 -16.5t28 -42.5q-6 -27 -24 -243t-70 -600.5t-113 -560.5q1 -5 1 -32t-18 -62.5t-52 -35.5l-49 35q0 42 16.5 92.5t38.5 133.5t47 250t48.5 394.5t31.5 289.5t17 120q20 119 22 190q-32 4 -56.5 4t-121.5 -9q-48 23 -48 60z" />
<glyph unicode="8" horiz-adv-x="526" d="M70 1415.5q0 81.5 35.5 136.5t106.5 55h41q100 -64 114 -148q9 -53 9 -171t-63 -397q-4 -19 -6 -29q68 -164 113.5 -370t45.5 -373q0 -25 -6 -47v-12q-63 -142 -186 -142q-45 0 -78 29t-50 75q-31 86 -31 176q0 342 66 561q28 95 30 104q-55 140 -98 305.5t-43 247z M170 1399.5q0 -60.5 26 -203t52 -227.5q41 182 41 343q0 44 -13.5 125t-35.5 81l-21 -3q-49 -55 -49 -115.5zM211 188q0 -41 20.5 -111.5t44.5 -70.5q96 0 96 141t-29 291.5t-83 344.5q-49 -200 -49 -593v-2z" />
<glyph unicode="9" horiz-adv-x="531" d="M63 1243q0 262 112 344q37 27 86 27q100 0 136 -46t36 -148q0 -197 -12.5 -591.5t-12.5 -591.5l-13 -147l1 -41q0 -83 -57 -83l-43 38q32 96 32 682l-4 245q-114 26 -187.5 111.5t-73.5 200.5zM163 1229.5q0 -46.5 16 -67.5q8 -65 28 -84.5t33 -26.5t40 -19t46 -23 q9 156 9 418q0 47 -14.5 73.5t-50.5 26.5t-57 -34.5t-31 -84.5t-14.5 -91t-4.5 -87.5z" />
<glyph unicode=":" horiz-adv-x="354" d="M94 251.5q0 29.5 23 53.5t53 24t51.5 -24t21.5 -55.5t-23 -52t-54 -20.5t-51.5 22.5t-20.5 52zM115 1025q0 29 23 53.5t52.5 24.5t51.5 -24t22 -55.5t-23 -52t-54.5 -20.5t-51.5 22.5t-20 51.5z" />
<glyph unicode=";" horiz-adv-x="410" d="M83 27v24q5 5 37 31q64 51 71 89q-59 43 -59 90.5t31.5 72.5t70 25t64.5 -30.5t26 -73.5t-27.5 -105.5t-75.5 -111.5t-96 -49q-12 0 -27 13t-15 25zM168 1026q0 29 23 53.5t52.5 24.5t51.5 -24t22 -55.5t-23 -52t-54.5 -20.5t-51.5 22.5t-20 51.5z" />
<glyph unicode="&#x3c;" horiz-adv-x="553" d="M65 698q2 56 106 282t111.5 252.5t14.5 56t14 51.5t19 50q24 57 58 57l7 -1l45 -35q-17 -134 -140 -374q-118 -232 -118 -335q0 -15 137.5 -292t173.5 -341q-1 -9 0 -21t0 -24t-3 -22q-4 -24 -25 -24l-44 4q-107 163 -216.5 408.5t-139.5 307.5z" />
<glyph unicode="=" horiz-adv-x="783" d="M110 634q0 21 12.5 33.5t33.5 12.5h307q209 0 209 -54q0 -21 -13.5 -34t-34.5 -13l-432 10q-82 0 -82 45zM110 826q0 21 12.5 33.5t33.5 12.5h367q159 0 159 -54t-216 -54q-92 0 -146 6h-9l-78 -3q-123 0 -123 59z" />
<glyph unicode="&#x3e;" horiz-adv-x="578" d="M59 49q70 129 202.5 384t132.5 269q0 102 -90 280q-112 218 -139 295t-28 134l45 35v-2q44 -21 60 -55t20 -45q10 -24 25 -81.5t119 -281.5t106 -283l-357 -717l-42 -4q-25 0 -39 22.5t-15 49.5z" />
<glyph unicode="?" horiz-adv-x="1161" d="M92 948.5q2 63.5 2.5 133.5t8.5 144t18 147t31 143.5t47 133.5t66 115.5t88 90.5q102 82 256 82q85 0 163.5 -52t134.5 -131q92 -55 145 -567q25 -235 25 -359t-1 -185.5t-10 -179t-25.5 -194t-50.5 -172t-82 -152t-123.5 -96.5t-175 -40t-181 33.5t-135 84.5 t-92.5 133.5t-59.5 158.5t-31.5 182q-17 153 -17 268v163q-3 52 -1 115.5zM211 954q0 -774 134 -927q20 -23 65 -52.5t57 -38.5h59v-20q236 3 340 216q97 199 97 574q0 283 -24.5 513t-96.5 436v15q-31 49 -101.5 105.5t-116.5 56.5q-413 0 -413 -878zM372 470v984 q0 110 46 146q43 35 142 35q227 0 227 -365q0 -169 -83 -249q-18 -18 -33.5 -30.5t-18.5 -21.5q3 -76 175 -655q0 -22 17.5 -58.5t17.5 -55.5t-19 -38t-36 -19q-64 0 -129 239q-38 138 -78.5 320.5t-51.5 211.5h-53q-5 -80 -5 -148t22 -263t22 -293q0 -67 -55 -67 q-28 0 -50.5 18.5t-22.5 54t-17 123t-17 131.5zM461 1407l8 -144q0 -173 23 -263q178 76 178 272v26q0 227 -104 227q-61 0 -83 -30.5t-22 -87.5z" />
<glyph unicode="@" horiz-adv-x="1078" d="M90 956q0 300 34 430q44 165 120 236q102 97 261 97q254 0 365 -252q56 -126 94 -376.5t38 -304.5t-0.5 -78t-4 -65t-10 -70t-19 -63t-30.5 -54q-43 -50 -98.5 -50t-102.5 43q-36 -63 -96.5 -103t-111 -40t-79 13t-49.5 33t-37.5 53.5t-27 64.5t-18 76t-11 78.5 t-5.5 81.5q-3 73 -3 136.5t0.5 99t5 93.5t12.5 96.5t24.5 83.5t38.5 72q54 64 141 64t154 -67q32 -32 54 -190t31 -239q19 -157 31 -290v-9l45 -46q21 12 34 71q17 83 17 195q0 347 -109 628q-46 113 -107.5 160.5t-174.5 47.5q-152 0 -226 -138q-34 -65 -49.5 -158.5 t-17 -150.5t-3.5 -113.5t-1 -100t1 -78.5q-1 -904 263 -904q179 0 241 57q24 22 71.5 66t101.5 77v10l49 -39q-16 -59 -69 -110.5t-121 -83.5q-142 -66 -266 -66q-380 0 -380 1076zM421 855q0 -206 11 -267.5t22 -99.5q24 -78 75 -78q42 0 86 74t44 121v154q0 119 -21 245 q-39 242 -120 242q-97 0 -97 -326v-65z" />
<glyph unicode="A" d="M57 64q46 67 187 854q55 311 66 361q55 264 119 264q38 0 61 -18v4q40 -287 84 -747t44 -712q0 -69 -67 -69t-67 53v267q-29 20 -103.5 34t-132.5 18q-25 -42 -38.5 -171.5t-43.5 -178.5q-99 0 -109 41zM261 464q85 -23 141 -23t80 6q-3 37 -20 221q-45 470 -45 525.5 t1 60.5q-12 -14 -57.5 -290t-51.5 -300t-19 -66q-27 -87 -29 -134z" />
<glyph unicode="B" horiz-adv-x="625" d="M104 1370v33q0 134 77 134q94 0 163 -45q140 -89 140 -291q0 -156 -125 -332q87 -123 105.5 -145t32.5 -45.5t16 -29t7 -31.5t6 -45q1 -49 9.5 -116t11.5 -75q1 -2 1 -5q0 -13 -8 -47q-10 -44 -14.5 -58t-11.5 -39.5t-12 -38t-14 -33t-18 -31t-22 -27t-28 -27t-34 -24.5 q-63 -44 -112.5 -56.5t-55.5 -12.5h-10q-56 0 -71 8q-29 16 -29 43l10 504zM215 1347.5q0 -73.5 4 -231t4 -228.5q73 17 125 180q28 87 36 105v73q0 60 -42.5 117.5t-98.5 57.5q-28 0 -28 -73.5zM222 786q9 -254 9 -696q99 16 156 94.5t57 184.5q0 346 -152 416v1h-70z" />
<glyph unicode="C" horiz-adv-x="685" d="M83 988q0 166 14 238q-6 33 -6 64q0 126 94 200.5t232 74.5q49 0 96 -27.5t47 -72.5q0 -22 -17 -34t-47.5 -12t-45.5 25v-4h-32v8q-158 0 -198 -134q-20 -66 -20 -174l6 -141l-18 -143q0 -104 27.5 -381t53.5 -315q46 -67 141 -67t145 59q35 0 65 10v-27q0 -62 -36 -101 q-59 -67 -188 -67q-69 0 -136 46.5t-102 120.5t-55 381t-20 473z" />
<glyph unicode="D" horiz-adv-x="691" d="M64 1478.5q0 19.5 8 32.5t24 20.5t31 12t38 6.5q38 2 55 2h20q84 0 179 -90q115 -109 140 -230q15 -71 20 -158t7 -116q6 -66 16 -90v-95q-11 -19 -11 -62q0 -155 -71 -339t-176 -280q-78 -71 -105.5 -84t-54 -13t-57.5 17.5t-31 52.5q45 47 45 241q0 114 -19 339 t-19 337l6 224q0 95 -9 136.5t-22.5 79t-13.5 57zM210 1427q0 -190 14 -562.5t15 -554.5v-196q159 112 223 417q32 156 32 323q0 575 -284 575v-2z" />
<glyph unicode="E" horiz-adv-x="505" d="M110 55v1478l177 18q31 0 62.5 -18.5t31.5 -48.5q0 -61 -93 -61l-59 2q-15 0 -22 -1l16 -338q0 -41 -5 -119.5t-5 -114.5q11 2 30 7q42 11 65.5 11t42 -17t18.5 -41t-15 -43t-39 -19l-51 2q-24 0 -36 -15v-632q105 6 108 6q114 0 114 -54v-7q-14 -28 -47.5 -43t-58.5 -17 t-66 -2h-64q-78 0 -96 30q-8 14 -8 37z" />
<glyph unicode="F" horiz-adv-x="452" d="M69 1440q0 106 145 113q21 1 59 1t59.5 -14t21.5 -57t-57 -43l-50 2q-57 0 -57 -23q0 -95 15 -278.5t16 -271.5q88 22 112.5 22t41 -19.5t16.5 -43.5q0 -67 -170 -67q0 -111 19.5 -333t19.5 -334l-4 -13q3 -9 3 -30t-19 -37t-50 -16q-59 0 -59 131q0 195 -20.5 737 t-41.5 574z" />
<glyph unicode="G" horiz-adv-x="771" d="M80 862q0 481 136 637q79 92 205 92q82 0 82 -58q0 -22 -15.5 -35t-36.5 -13l-56 10q-74 0 -117 -93q-44 -96 -57 -189.5t-19 -149.5t-8 -125q-4 -97 -4 -194l-1 -127q0 -201 17 -281.5t34.5 -129.5t41.5 -82q56 -73 143.5 -73t145.5 86q-3 184 -31 234l-77 -8 q-68 0 -68 58q0 50 127 65q25 3 55.5 3t52.5 -32t22 -85.5t20.5 -174.5t20.5 -163q0 -75 -51 -75t-68 43v2q-12 -6 -43 -24q-61 -34 -108.5 -34t-94 19t-80 48.5t-60 76.5t-44 93t-30 108t-18.5 111t-10 114q-5 80 -5 195z" />
<glyph unicode="H" horiz-adv-x="624" d="M84 1510v15q3 32 35 32q63 0 72 -43q-7 -73 -7 -154l14 -421l-2 -77q0 -29 4 -53l192 15l-18 672q-1 15 16 33t38.5 18t38.5 -36t17 -118q0 -225 19 -675.5t19 -674.5q0 -27 -17 -50.5t-43 -23.5q-52 0 -52 68q0 382 -17 722q-55 10 -101 10t-82 -16q1 -112 17.5 -343.5 t16.5 -350.5q0 -20 -12 -37t-32 -17q-33 0 -49.5 27.5t-21 145t-5.5 257.5t-3 167q-37 532 -37 908z" />
<glyph unicode="I" horiz-adv-x="489" d="M62 66q0 47 62 47l63 -1q10 0 10 102t-19 417.5t-19 473.5l4 209q0 66 -5 114q-27 -9 -48 -9q-48 0 -48 49q0 25 31 43.5t77 26.5q86 15 127.5 15t59.5 -16.5t18 -39t-13.5 -39t-34.5 -16.5l-36 1q-20 0 -29.5 -8.5t-9.5 -33.5q0 -200 26 -599t26 -599v-88l42 1 q83 0 83 -34q3 -12 3 -21q0 -17 -10 -27q-16 -14 -44 -15h-257q-59 0 -59 47z" />
<glyph unicode="J" horiz-adv-x="475" d="M47 1481q0 72 245 72q118 0 118 -56q0 -53 -82 -53h-9v-15l-4 -317q0 -133 18.5 -398.5t18.5 -429.5t-44 -281.5t-155 -196.5q-32 0 -53 16t-21 44t25.5 51t54.5 35q82 103 82 289q0 102 -10.5 292t-12 256.5t-2.5 170t-2 168.5q-3 173 -26 317q-7 -1 -27 -6 q-40 -10 -61.5 -10t-37 15.5t-15.5 36.5z" />
<glyph unicode="K" horiz-adv-x="691" d="M93 96.5q0 103.5 13.5 287.5t13.5 276l3 389q0 223 -6.5 277t-15 92.5t-8.5 61t16.5 42t41.5 19.5q76 0 76 -166q0 -1 -9 -421q7 18 38 100t64 167t70 173q86 202 123 202q23 0 40.5 -15.5t17.5 -37t-112 -255.5t-125 -297v-36q30 -79 163.5 -498.5t133.5 -445t-20 -42.5 t-45 -17l-48 8q-50 293 -102 508.5t-138 411.5q-57 -109 -61 -132q-7 -53 -7 -98l13 -380q0 -277 -70 -277q-60 0 -60 103.5z" />
<glyph unicode="L" horiz-adv-x="485" d="M88 1529q0 19 15 30.5t37.5 11.5t41 -17t18.5 -42l20 -737q0 -36 -3 -65v-9q3 -59 9 -168q15 -243 15 -366v-65h146q34 -20 39 -29t5 -25.5t-15 -34t-31 -17.5t-37 7q-17 -4 -39 -4l-66 3q-21 -25 -52.5 -25t-53 19.5t-21.5 45.5l13 90q0 233 -20.5 698.5t-20.5 698.5z " />
<glyph unicode="M" horiz-adv-x="854" d="M106 122l7 342l-7 793q0 133 3 265l57 32q57 -6 127 -360q56 -280 91.5 -516t38.5 -254q138 785 170 1093v12q5 27 26.5 42.5t43 15.5t32.5 -8q24 -17 24 -44q0 -243 13 -728t13 -728q0 -61 -41 -96q-14 -9 -21 -9q-4 0 -6 3q-12 -3 -20 -3q-22 0 -26 20q-2 12 -2 30 l1 33q-4 156 -4 244t2 243q1 66 0 184q0 157 -1 404q-11 -64 -46.5 -241.5t-48.5 -258t-21 -134.5t-15.5 -96.5t-18.5 -86.5q-23 -93 -66 -93q-64 0 -64 191q-12 98 -66 392.5t-72 404.5q-2 -190 -2 -285l17 -852q0 -44 -31 -77q-51 0 -69 34t-18 92z" />
<glyph unicode="N" horiz-adv-x="764" d="M93 812v261l14 376q0 76 11 85q26 20 54 20t43 -8q35 -19 35 -53t8 -67.5t23 -75t21 -63.5t10.5 -51t6.5 -52q7 -77 17.5 -133t40.5 -166.5t57 -195.5q68 -218 77 -391q16 -30 20 -73l6 714v606q12 51 67.5 51t55.5 -80v-12q-13 -27 -13 -60l-8 -757v-626q0 -49 -40 -71 q-21 -11 -43.5 -11t-34 7t-17.5 17t-10.5 25t-6.5 28q-11 73 -76 306q-126 448 -161 675q-2 7 -2.5 19t-1.5 20q-1 22 -11 36q1 42 -17.5 107.5t-20.5 78.5v-1296h-72v38q4 15 -1 63t-5 114t-13 304t-13 291z" />
<glyph unicode="O" horiz-adv-x="694" d="M81 765.5q0 85.5 3 140.5q4 101 9 179.5t6 120.5t2 71t6 71.5t12 72.5t21.5 63t34.5 54q46 47 103 47t91 -11t57.5 -28.5t43 -46t32 -55.5t22.5 -65q13 -48 26 -137q49 -350 49 -624l-18 -259v-9q-13 -57 -13 -123t-22.5 -127.5t-69 -109t-101.5 -47.5t-100.5 38 t-75 97.5t-52.5 142t-35 161t-20 165.5q-11 133 -11 218.5zM173 852q0 -165 31 -378q62 -419 175 -419q40 0 68 76.5t39 191.5q20 195 20 282.5t-0.5 125.5t-3 110.5t-8.5 136t-15 140.5t-24.5 137t-35.5 112.5t-49.5 81t-57 28.5t-44.5 -14t-29 -42t-22 -59.5t-16.5 -77 t-11.5 -82.5t-8 -88t-5 -83t-2.5 -77t-0.5 -60v-42z" />
<glyph unicode="P" horiz-adv-x="551" d="M67 1520q32 46 78 46q76 0 138.5 -34t101.5 -90q81 -118 81 -267.5t-65 -272t-191 -190.5l16 -638q0 -85 -68 -85q-25 0 -37 21.5t-12 47.5l10 731q0 486 -52 731zM187 1459q1 -108 9.5 -324t8.5 -324q155 147 155 347v1q0 148 -54 204q-34 35 -119 96z" />
<glyph unicode="Q" horiz-adv-x="720" d="M82 574l10 334l-2 144q0 524 221 524q81 0 151 -58.5t89 -140.5q35 -155 45 -322.5t10 -290.5v-153q0 -256 -20 -319q-40 -130 -105 -222q2 -8 7 -40.5t11.5 -63t15.5 -62.5q20 -73 52 -73h20q76 0 76 -50q0 -63 -91 -63q-35 0 -85 29v1q-54 26 -74 91q-17 55 -24 109 t-11 72h-81q-190 128 -211 426q-4 56 -4 128zM183 712q0 -114 2 -169t13 -142.5t28.5 -152t53.5 -114.5t84 -54v2q15 26 47 26v-1q83 79 83 220v466q0 93 -14.5 222.5t-17 157.5t-4.5 53t-3 40t-4 39t-6.5 38.5t-10 34.5t-14.5 32t-20 25.5t-27 20.5q-35 18 -79 18 q-36 0 -60.5 -105.5t-33.5 -264.5q-17 -278 -17 -392z" />
<glyph unicode="R" horiz-adv-x="601" d="M102 44v16l14 1201v252q0 24 10 34t58 10t98 -31.5t80 -81.5q62 -103 62 -227q0 -100 -50 -229q-6 -14 -24 -59t-21 -53q1 -80 26.5 -199.5t47.5 -193t73.5 -229.5t58.5 -178v-30q0 -67 -49 -67q-38 0 -74 55v7q-5 82 -50.5 225t-56.5 193t-35.5 188.5t-42.5 211.5v-807 q0 -65 -67 -65q-24 0 -41 16.5t-17 40.5zM210 1045q0 -63 2 -94q34 33 66 79l30 177q0 106 -28 178t-59 78z" />
<glyph unicode="S" horiz-adv-x="581" d="M64 24q0 55 46 55q23 0 60.5 -15.5t65 -15.5t59.5 35t50 87q37 105 37 191t-30 184t-73.5 184t-86.5 172q-103 206 -103 374q0 160 101 251q54 48 127 48q37 0 72 -20.5t49 -53.5v-44q-86 0 -115 20q-38 -4 -66 -36q-51 -60 -51 -138.5t23 -162t55 -157t64.5 -136.5 t55.5 -103t23 -42v-16q7 -26 24 -82t27 -89q25 -90 25 -163t-17.5 -139t-50 -124.5t-88 -95.5t-103.5 -37t-81 5t-66 22t-33 42z" />
<glyph unicode="T" horiz-adv-x="543" d="M47 1468.5q0 24.5 49 42t120 25.5q123 14 207 14q25 0 45.5 -16.5t20.5 -41.5t-18 -39.5t-44 -14.5l-73 4q-14 0 -21 -1q14 -118 14 -252l-4 -264q0 -187 32 -314v-1q-14 -65 -14 -156l17 -368q0 -100 -59 -100q-34 0 -50 32t-16 71l16 327q0 106 -14 319t-14 319l3 179 q0 147 -19 191l-111 -11q-26 0 -46.5 15.5t-20.5 40z" />
<glyph unicode="U" horiz-adv-x="752" d="M67 1477q0 25 17.5 44t41.5 19q74 0 74 -146l18 -712q12 -27 21 -109t9 -127.5t14.5 -112t39.5 -134.5t67.5 -116t90.5 -48q78 0 82 141q1 18 1 43v919q0 58 -22 175.5t-22 159t20.5 57t46.5 15.5l62 -48v-34l-18 -125q0 -119 15 -348.5t16 -340.5v-3l4 -60l6 -126v-31 l-5 -22l1 -119q0 -180 -51 -255q-48 -70 -149 -70q-123 0 -187 89q-56 76 -82 204q-33 154 -53 218q-2 5 -22.5 458t-20.5 503q-15 17 -15 42z" />
<glyph unicode="V" horiz-adv-x="664" d="M51 1523q12 40 60 40q23 0 31.5 -10.5t12.5 -16.5t7 -17.5t4.5 -18t3 -19.5t11.5 -73.5t45 -295.5q74 -510 128 -773q13 116 50 369q75 525 75 820q32 41 75 41h43q-14 -133 -73 -581t-70.5 -586t-12 -188t-2.5 -87.5t-8 -76.5q-13 -84 -61 -84q-29 0 -48 22 q-47 195 -140 780.5t-131 754.5z" />
<glyph unicode="W" horiz-adv-x="950" d="M52 1491q26 49 71 49q59 0 85 -154q12 -72 15 -180t6.5 -148t13 -121t18.5 -139q20 -132 44 -295q75 600 75 783v39q0 22 16.5 42.5t37.5 20.5q83 0 83 -60v-31q0 -199 81 -574q37 -168 52 -262q11 113 40 327q63 466 63 718q0 45 15 65.5t49 20.5t53.5 -16t19.5 -41 t-21 -46q-31 -168 -54.5 -501t-45.5 -465.5t-29 -182.5q-26 -170 -26 -297q0 -31 -15.5 -51t-43 -20t-45.5 33t-28 87.5t-15.5 104t-9 103t-11 112t-47.5 254t-46 227.5q-75 -575 -75 -865q0 -22 -18.5 -39.5t-40.5 -17.5q-75 0 -75 156q0 96 -84.5 701.5t-107.5 662.5z" />
<glyph unicode="X" horiz-adv-x="578" d="M63 34.5q0 21.5 7.5 48.5t21 61.5t34 101.5t65 275.5t44.5 290.5t-21 174.5t-46 165.5q-66 196 -66 321v5q19 42 58 42t47.5 -18.5t11 -27.5t4.5 -30.5t7 -57t34.5 -152t36.5 -147.5q3 10 25 142q55 321 117 321q23 0 42 -12t19 -29.5t-4.5 -31.5t-12.5 -32t-20.5 -51.5 t-64 -288t-51.5 -289t23.5 -153t53.5 -263t31 -152.5v-12q2 -25 16 -76t14 -76.5t-16.5 -42.5t-39.5 -17q-60 0 -60 47t-4.5 93.5t-14.5 99.5t-17.5 87t-22.5 97.5t-21 89.5q-76 -324 -91 -407.5t-20 -99t-21 -30t-39.5 -14.5t-41 13t-17.5 34.5z" />
<glyph unicode="Y" horiz-adv-x="522" d="M53 1513q0 33 65 33q15 0 31 -12t17 -27q20 -236 102 -501q4 18 9.5 85.5t13 138.5t19.5 144q27 165 81.5 165t54.5 -22q0 -115 -49 -343t-49 -346l6 -71v-31l-1 -543l-1 -102v-46q0 -27 -18 -43.5t-40.5 -16.5t-38 14.5t-15.5 35.5l10 396q0 60 -19.5 177.5t-19.5 189 t-24.5 174t-54.5 184.5q-79 214 -79 367z" />
<glyph unicode="Z" horiz-adv-x="494" d="M60 31q47 75 105.5 389.5t96 607.5t45.5 423q-70 -10 -117 -10q-111 0 -111 65v43l29 1q27 -7 57 -7l193 21q24 0 40 -17.5t16 -56.5q0 -46 -40 -266q-12 -88 -39 -314q-53 -447 -104 -701q-5 -23 -22 -63.5t-22 -60.5l108 8q108 0 108 -63v-9l-32 -32l-253 -8 q-39 0 -58 50z" />
<glyph unicode="[" horiz-adv-x="523" d="M72 -35q0 84 21.5 252.5t21.5 295t26.5 462.5t26.5 505q0 65 39 96h78q186 0 186 -65q0 -21 -17.5 -33.5t-38.5 -12.5l-115 13q-38 0 -38 -20q0 -285 -25 -663.5t-27.5 -418t-15 -153t-12.5 -175.5v-42h9q194 1 194 -74q0 -44 -66 -44q-247 0 -247 77z" />
<glyph unicode="\" horiz-adv-x="561" d="M60 1492.5q0 34.5 16.5 48.5t34 14t27 -7t15.5 -21t9 -24t6 -28.5t15 -70t72.5 -273t111.5 -409.5q134 -492 134 -691q0 -37 -38 -61v-1q-32 0 -57 55q-45 100 -73 269q-40 185 -119.5 529t-98 427.5t-29.5 122.5q-26 86 -26 120.5z" />
<glyph unicode="]" horiz-adv-x="506" d="M54 1511q0 67 193 67h72q33 -14 36 -29.5t3.5 -19.5t0 -22.5t-0.5 -103.5t18 -408t18 -450t20.5 -308t20.5 -272q0 -77 -248 -77q-66 0 -66 44q0 74 181 74h21v42q-4 202 -32 677.5t-28 732.5v18l-135 -11q-74 0 -74 46z" />
<glyph unicode="^" horiz-adv-x="355" d="M108 1576q0 30 16.5 55t46.5 25t52 -21.5t22 -50.5t-18 -49t-47 -20t-50.5 15.5t-21.5 45.5z" />
<glyph unicode="_" horiz-adv-x="982" d="M90 -85q0 62 218 62l177 3l329 20q25 0 46 -17t21 -50t-26.5 -41t-88 -7.5t-76.5 0.5l-549 -22q-21 0 -36 15.5t-15 36.5z" />
<glyph unicode="`" horiz-adv-x="583" d="M91 1658q0 51 28 68q69 0 87 -9t24.5 -13t46.5 -17t65.5 -23t59.5 -26q71 -33 71 -73q0 -17 -15 -28.5t-28.5 -11.5t-34 6t-48 16t-50 18.5t-49.5 19.5t-33 13q-22 -2 -35 -2q-89 0 -89 62z" />
<glyph unicode="a" horiz-adv-x="674" d="M63 44q54 207 92.5 434t46 269.5t35 164t33 162.5t10.5 106q9 142 37 183h69q70 0 70 -42q0 -395 77 -785q4 -23 15 -64q24 -89 24 -141l-11 -41q0 -25 18 -122t18 -127v-2q0 -46 -31 -58q-43 0 -67 14t-24 70.5t-30 232.5l-63 6h-68q-23 10 -81 10q0 -2 -2.5 -26.5 t-4 -39.5t-5 -44.5t-7.5 -50t-10 -48t-13.5 -46t-16.5 -35.5q-18 -35 -44 -35t-46.5 15.5t-20.5 39.5zM251 408q35 -23 181 -33q-6 30 -6 97t-8.5 162.5t-24.5 221.5t-22 182q-12 -58 -47 -194q-71 -283 -73 -436z" />
<glyph unicode="b" horiz-adv-x="542" d="M91 88l20 436l9 649q0 71 -2 106v19q0 85 58 85q46 0 124 -26t78 -61q0 -46 30.5 -134.5t30.5 -133.5q0 -139 -20 -200.5t-63 -122.5q59 -57 77 -143.5t18 -174t-10 -141.5t-33 -103t-56 -85q-73 -78 -197 -78q-44 0 -55 38q-9 28 -9 70zM207 84q66 16 100 81.5t34 121.5 t-1.5 89.5t-8.5 81.5t-19 84q-29 87 -90 101q-8 -118 -8 -246t6 -153q-13 -22 -13 -68v-92zM220 763q103 3 103 249q0 65 -15 135q-30 135 -88 141v-525z" />
<glyph unicode="c" horiz-adv-x="568" d="M77 615q0 589 144 695q74 54 206 54q22 0 40.5 -16t18.5 -37v-8q-19 -47 -99 -47l-37 2q-34 0 -60.5 -37t-40.5 -89t-23 -116q-14 -101 -14 -189v-10l-13 -395q0 -125 13.5 -173t28 -77.5t34.5 -48.5q46 -44 118 -44q24 0 44 18q62 0 62 -45q0 -81 -114 -81 q-47 0 -96.5 13.5t-74.5 29.5q-136 88 -136 481z" />
<glyph unicode="d" horiz-adv-x="645" d="M86 1284.5q0 27.5 23 48t55.5 20.5t55.5 -36q15 -6 44.5 -11t43.5 -12q114 -53 178.5 -187.5t64.5 -298.5l-4 -103v-112q0 -203 -18 -274t-36.5 -117t-44.5 -82q-60 -81 -152 -132h-140q-52 0 -52 268l6 645q0 179 -7 336q-17 20 -17 47.5zM216 1045l23 -904v-49h37 q107 130 138 238q29 101 29 282q0 618 -212 646q-15 -81 -15 -213z" />
<glyph unicode="e" horiz-adv-x="517" d="M102 436l14 598l-11 173q0 145 86 145q24 0 45 -15q8 -1 38.5 -3.5t53.5 -6.5t50 -11q58 -16 58 -55q0 -42 -60 -64q-94 32 -155 39q3 -44 3 -88l-9 -294q0 -2 6 -32l73 3q99 0 99 -56q0 -30 -17.5 -53t-49.5 -23t-56 18h-52q6 -78 6 -148l-9 -371q0 -115 74 -115l81 5 q78 0 78 -50q0 -31 -27 -45t-61 -14h-193q-26 0 -44.5 18t-20.5 46v13q0 24 4 57q6 42 6 67z" />
<glyph unicode="f" horiz-adv-x="541" d="M84 13l57 -43q69 0 69 102v580q38 -12 73.5 -12t57.5 16.5t22 43.5q0 54 -99 54l-38 -1v55l19 411v24q90 0 131 -20q104 0 104 58q0 66 -202 81q-36 2 -66.5 2t-55 -16t-24.5 -45q0 -90 -10.5 -274t-16 -511.5t-21.5 -504.5z" />
<glyph unicode="g" horiz-adv-x="654" d="M72 594q0 70 3 116t9 104.5t7 76t3.5 50t5 62t11 83t18.5 84.5t29 70.5t44 61.5q61 52 141.5 52t80.5 -52q0 -24 -17.5 -39.5t-40.5 -15.5l-37 5q-60 0 -91 -140q-30 -136 -35 -245q-9 -167 -9 -222.5t0.5 -86t2 -76t5 -80.5t9.5 -77.5t14.5 -74t21 -63t28.5 -51.5 q36 -45 86 -45q87 0 87 330v15v75q-13 8 -42 8l-36 -1q-29 0 -46 9.5t-17 38t18.5 43.5t45.5 15v-1q200 0 200 -63l-22 -149l10 -217q0 -59 -9 -101q-119 -109 -211 -109q-49 0 -90 26.5t-80 90.5t-68 243.5t-29 249.5z" />
<glyph unicode="h" horiz-adv-x="627" d="M96 1294q0 24 17 42.5t41 18.5q65 0 65 -122l-8 -511q36 -10 108 -10h78v43q0 94 -14 282.5t-14 282.5q0 23 17.5 38.5t31 15.5t23.5 2q8 1 13 1q2 -1 4 -1q6 0 14 -4q15 -7 15 -46q0 -215 19 -644t19 -644q0 -18 -15.5 -28t-39.5 -10t-45 12.5t-22 33.5q-11 204 -11 502 v8l-1 59l-1 19v2q-16 -4 -46 -4l-127 19l-6 -226v-9l17 -337q0 -30 -14.5 -52t-42.5 -22q-41 0 -56.5 74.5t-15.5 203.5l6 312l1 117l4 120z" />
<glyph unicode="i" horiz-adv-x="551" d="M53 1309q0 47 107 47h4h7q263 0 263 -70q0 -11 -12 -38h-105q8 -75 8 -176l-11 -391l15 -435v-61q0 -18 -7 -55h87q84 0 84 -51q0 -23 -14.5 -39t-32.5 -16l-89 -1l-77 -1l-89 -4q-57 0 -76 37q0 30 7.5 46.5t31.5 16.5h58l4 27l-14 435l11 456q0 115 -10 218h-79.5 t-53.5 11.5t-17 43.5z" />
<glyph unicode="j" horiz-adv-x="569" d="M42 -193q132 83 175.5 158t43.5 222l-18 1046v9q-22 0 -61 7t-51 12t-25 12q-25 13 -25 36t23 36.5t54.5 13.5t111.5 -10t161.5 -36.5t81.5 -59.5q0 -22 -16.5 -35t-38.5 -13t-60 9.5t-45 10.5v-17l20 -826l-3 -92l3 -176q0 -195 -71 -274q-65 -73 -199 -94z" />
<glyph unicode="k" horiz-adv-x="696" d="M97 34v622q0 111 19.5 331.5t19.5 330.5q18 39 52 39q62 0 62 -69l-17 -373v-107q6 11 75 162q173 374 216 374q30 0 54.5 -14t24.5 -41q0 -2 -104 -173.5t-116 -196.5l-4 -122q0 -88 70.5 -329t117.5 -319q6 -9 26.5 -37t30 -49t9.5 -44t-17.5 -38.5t-40.5 -15.5 q-48 0 -100 101.5t-93 248.5q-69 251 -101 437q-34 -35 -52.5 -93.5t-18.5 -80.5v-561q0 -48 -45 -48q-31 0 -49.5 17.5t-18.5 47.5z" />
<glyph unicode="l" horiz-adv-x="522" d="M96 39l20 915v15q-6 64 -6 192q0 194 71 194q21 0 36.5 -15t15.5 -36l-14 -156l6 -492q-12 -29 -12 -111l-8 -326q0 -141 69 -141l85 3q110 0 110 -60q0 -22 -19 -36.5t-43 -17.5q-75 24 -183 24q-33 -19 -63.5 -19t-47.5 21t-17 46z" />
<glyph unicode="m" horiz-adv-x="878" d="M108 530q22 486 23 731q3 52 16 69.5t37 19.5q8 1 14 1q12 0 18 -3q8 -4 14.5 -13.5t11 -17.5t8.5 -24.5t6 -25t5 -27t6 -36t30 -142t59.5 -321t75.5 -498.5q63 337 109 639t48.5 321t4 28t5.5 27t7.5 28t10.5 23.5t15 20.5q19 18 45 18t50 -15t24 -41q0 -470 8.5 -651 t8.5 -218l-2 -330q9 -22 9 -46.5t-16 -52.5t-42 -28q-64 0 -64 128l3 189q0 199 -4 356q3 93 3 486q-31 -192 -86 -515t-58.5 -342.5t-5.5 -37.5t-4 -31t-7.5 -30t-12.5 -28q-17 -27 -48 -27q-60 0 -72 88q-16 125 -65.5 439.5t-73.5 423.5q-16 -701 -16 -976l3 -61 q0 -33 -13.5 -50.5t-43.5 -17.5t-49 14q-18 14 -18 40q-1 8 23 516z" />
<glyph unicode="n" horiz-adv-x="769" d="M99 829l12 382q0 138 75 138q45 0 65 -69q28 -132 97.5 -379.5t95.5 -376.5q19 -63 49 -186.5t47 -185.5q8 444 8 1076l-3 55q0 28 10.5 44.5t35.5 16.5t41 -12q32 -24 32 -68q0 -281 -16 -722t-48 -551q-4 -1 -17 -5.5t-19 -5.5q-24 -5 -40 -5q-23 0 -32 10 q-15 18 -21.5 48t-15 58.5t-63.5 272.5q-147 645 -181 750v-306l12 -530v-232q0 -27 -14 -45.5t-39 -18.5q-67 0 -67 125z" />
<glyph unicode="o" horiz-adv-x="669" d="M77 751v40q0 433 127 535q31 25 69 27q29 -10 71 -18.5t62 -17.5q37 -17 80 -88.5t63.5 -191t20.5 -239.5v-247q0 -589 -241 -589q-222 0 -249 558q-2 53 -2 106zM190 1033l3 -120l-1 -196q0 -25 1 -59t2.5 -89.5t6 -110t10.5 -115t16 -112t22 -93.5q27 -91 71 -91 q59 0 90 111q46 165 46 406l3 211q0 222 -19.5 299t-36.5 116q-34 79 -103 79h-4q-107 0 -107 -236z" />
<glyph unicode="p" horiz-adv-x="540" d="M97 1270q5 26 19.5 49t36.5 23h90q118 0 166 -98q42 -87 42 -200q0 -143 -7 -175.5t-15 -61.5t-19.5 -47t-29.5 -39.5t-41 -36.5q-51 -33 -123 -56v-219l16 -388q0 -26 -18 -43t-44 -17h-50q-12 56 -12 167l-5 524l8 233l3 195q0 121 -17 190zM215 713q124 17 124 346 q0 120 -53 154q-24 15 -60 15v-113l-11 -399v-3z" />
<glyph unicode="q" horiz-adv-x="654" d="M78 754q0 480 134 588q34 27 76 27q15 -7 48 -14.5t59.5 -20t56.5 -46.5t48.5 -80.5t30 -93t17.5 -104.5q8 -91 8 -198q0 -781 -150 -861q0 -76 21 -171.5t23 -105.5q104 0 104 -58q0 -21 -14.5 -35.5t-35.5 -14.5v2q-111 0 -151 47q0 93 -14 168q-24 130 -29 155 q-117 28 -160 106q-72 134 -72 710zM177 742q0 -78 0.5 -105t1.5 -91t4.5 -115t9 -118t15.5 -117t22 -96q26 -94 74 -94q27 12 57 12q20 0 44 104q57 249 57 604q0 398 -94 516q-36 46 -85 46q-30 0 -53 -77.5t-34 -186.5q-19 -204 -19 -282z" />
<glyph unicode="r" horiz-adv-x="557" d="M87 1268q0 97 68 97q107 0 180 -56t73 -160q0 -140 -22 -218t-83 -195q11 -49 39 -196q59 -318 133 -459q21 -40 21 -62.5t-12.5 -38t-33.5 -15.5q-67 0 -123 223q-24 97 -43 196q-54 271 -69 305q0 -26 -14 -83t-14 -105.5t12.5 -207t12.5 -204.5t-16.5 -70t-37.5 -24 q-30 0 -38 41q2 76 2 186.5t-17.5 485.5t-17.5 560zM191 1260q0 -84 4 -242.5t4 -230.5q48 25 77.5 130.5t29.5 161.5t-3 82.5t-13 58.5q-19 67 -92 69z" />
<glyph unicode="s" horiz-adv-x="500" d="M75 51v35l108 -15q39 0 68 34t43 85q27 98 27 173.5t-25 149.5t-61 137.5t-73 129.5q-86 155 -86 306q0 92 31 163q58 132 154 132q36 0 68.5 -23t32.5 -50q0 -47 -50 -47q-22 0 -43 12q-65 -3 -88 -145q-5 -31 -5 -72.5t18 -102.5t45.5 -108.5t59 -105t59.5 -111.5 q63 -125 63 -286q0 -128 -51 -237q-27 -56 -76.5 -91.5t-114.5 -36.5v-5q-38 5 -69 25.5t-35 53.5z" />
<glyph unicode="t" horiz-adv-x="552" d="M49 1315q0 20 22 32.5t43 12.5l278 -19l33 1q64 0 64 -49q0 -25 -21 -40.5t-47 -15.5l-94 14l-4 -21q0 -194 34 -581t34 -582q0 -25 -18.5 -43t-43.5 -18h-46l-4 184l4 70q-8 26 -33 462.5t-27 532.5q-118 3 -146 21.5t-28 38.5z" />
<glyph unicode="u" horiz-adv-x="698" d="M81 1306v49q49 0 77.5 -38t28.5 -85v-991q0 -79 39.5 -144.5t116.5 -65.5q87 0 116 506v9l1 13q26 462 26 748l-1 34q0 24 11 36t42 12t46 -17t17.5 -34.5t2.5 -47.5l-14 -206l-9 -171l2 -35q-15 -72 -20 -247.5t-17.5 -283t-34.5 -189t-70.5 -135.5t-108 -54t-97.5 21.5 t-62 62t-40 87t-24 107.5q-14 107 -14 226l11 540q0 177 -25 293z" />
<glyph unicode="v" horiz-adv-x="732" d="M58 1311q0 27 15.5 41t36 14t37.5 -17t27 -48t16 -57.5t11.5 -61t7.5 -43.5q104 -474 164 -892q16 81 37.5 266t80 490.5t70.5 374.5h46q47 0 47 -27q0 -115 -49 -289.5t-59.5 -239t-22.5 -189.5t-19.5 -173.5t-27 -121t-24 -98t-7 -64t-6.5 -68.5t-13 -62 q-21 -70 -84 -70l-46 31q0 249 -47.5 508t-93 435t-61.5 223q-36 111 -36 138z" />
<glyph unicode="w" horiz-adv-x="841" d="M58 1293q38 -85 43.5 -173.5t8.5 -162.5t6.5 -121.5t21 -161t21 -141.5t6 -101.5t8 -147.5t15.5 -152q23 -175 84 -175q44 0 64 93q19 83 23.5 145t8.5 92.5t22 150.5q39 248 39 342t6 162q15 -108 30 -312t22 -267t17 -124q25 -142 25 -189t4 -66q11 -53 48 -53 q75 0 75 208q0 41 10 88q53 250 53 669v150q2 48 17 147t16 136q0 48 -57.5 48t-57.5 -50q0 -17 7 -35q0 -52 -15.5 -154t-15.5 -154q0 -391 -34 -677q-12 93 -26 265q-31 377 -82 571v17q0 24 -16 37t-39 13h-55q-2 -38 -14 -163t-12 -180.5t-3 -107.5t-6 -90.5t-11 -101.5 t-12 -90.5t-15 -100.5t-14 -93q-5 140 -48 444.5t-43 453t-66 148.5q-42 0 -59 -36z" />
<glyph unicode="x" horiz-adv-x="531" d="M65 1285q0 49 61 49q24 0 38.5 -16.5t18 -35t6.5 -48.5t8.5 -57t29.5 -128t35 -155q4 24 20 106q30 161 30 220q0 120 56 120h6q28 -2 30 -30q2 -19 0 -55t-2 -53v-93q-26 -70 -59 -232.5t-33 -233t36.5 -193t73 -235t36.5 -148t-16.5 -50t-39 -14.5t-46.5 14 q-14 63 -47 202.5t-48 213.5q-5 -28 -18 -152t-32 -188q1 -7 1 -24q0 -76 -53 -76q-23 0 -42.5 12.5t-19.5 34.5q0 131 57.5 310t57.5 273.5t-52 328t-76 267.5v22q-17 17 -17 44z" />
<glyph unicode="y" horiz-adv-x="580" d="M58 1288v11l46 34q63 -2 150 -317q38 -138 38 -139q8 22 32 153q61 332 128 332q19 0 34.5 -12t15.5 -31q0 -126 -61.5 -294.5t-61.5 -298.5v-617q0 -100 -27 -125q-14 -12 -43.5 -12t-49.5 45q23 45 23 347q0 57 -8 160.5t-9 139.5q-40 69 -123.5 317.5t-83.5 306.5z " />
<glyph unicode="z" horiz-adv-x="550" d="M65 52q0 26 11.5 75.5t34.5 125t32 107t31.5 138.5t37.5 164.5t56 177.5q94 270 100 416l-167 -12q-22 0 -37.5 17.5t-15.5 39.5q0 58 208 58h7q80 0 95.5 -18.5t15.5 -38.5q0 -72 -44.5 -195.5t-57.5 -203.5t-61 -233t-86.5 -296t-43.5 -267h35l86 4v1q83 0 83 -50 q0 -25 -22 -37.5t-49 -12.5l-121 6q-13 0 -36 -11t-41 -11t-34.5 15t-16.5 41z" />
<glyph unicode="{" horiz-adv-x="600" d="M57 768.5q0 24.5 14.5 35.5t34.5 12t40 6q50 10 50 94l-10 214q0 74 13 96q-5 30 -5 54q0 94 53 154.5t152 60.5q65 0 104 -19.5t39 -41t-17.5 -33.5t-39.5 -12l-101 19q-98 0 -98 -251l8 -210q0 -132 -36 -179q37 -46 37 -146v-430q0 -86 15 -110q26 -43 74 -43l121 23 q8 0 12.5 -17.5t4.5 -35t-24 -33.5q-38 -24 -99 -24q-116 0 -159 62.5t-43 183.5v423q0 76 -37 90q-29 11 -55.5 12t-37 11t-10.5 34.5z" />
<glyph unicode="|" horiz-adv-x="341" d="M110 1510q0 74 71 74q18 0 30 -16t12 -35l7 -1154v-408q0 -21 -17 -36t-38 -15q-51 0 -51 194z" />
<glyph unicode="}" horiz-adv-x="595" d="M60 12.5q0 21.5 17.5 33.5t39.5 12l101 -19q98 0 98 250l-10 245q0 147 38 195q-37 47 -37 146l10 252q0 281 -99 281l-121 -23q-8 0 -12.5 17.5t-4.5 35t24 32.5q38 25 99 25q114 0 158 -63t44 -183v-373q0 -86 46 -96q19 -5 38 -6q46 -2 46 -43q0 -48 -45 -50 q-19 -1 -38 -5q-46 -10 -46 -95l8 -251q0 -91 -11 -109q4 -25 4 -55q0 -94 -52.5 -154t-151.5 -60q-65 0 -104 19.5t-39 41z" />
<glyph unicode="&#xa1;" horiz-adv-x="346" d="M74 1481v6q4 85 78 85q40 0 65.5 -19.5t25.5 -59.5t-22.5 -69t-58.5 -29t-62 26.5t-26 59.5zM121 27l10 672l-8 339q0 110 10 184q9 28 28 28q27 0 41.5 -61t14.5 -178t20.5 -475.5t20.5 -537.5q0 -21 -14.5 -35.5t-41.5 -14.5t-54 23.5t-27 55.5z" />
<glyph unicode="&#xa2;" horiz-adv-x="666" d="M84 762q0 79 1.5 120.5t10.5 104.5t26 107q40 106 128 160l-12 114q0 88 54 88q25 -16 29.5 -29.5t4.5 -54t10 -118.5q9 -3 33.5 -9.5t39.5 -11t37.5 -14t36.5 -19.5q33 -24 37 -60v-5q0 -17 -13.5 -34t-33 -17t-38 16.5t-27.5 39.5h-58q40 -531 48.5 -623.5t7 -101.5 t-1.5 -12.5t2 -11.5q55 2 83 32q35 37 69 88q59 0 59 -60q0 -53 -75 -99t-137 -51v-79l14 -194q0 -20 -14.5 -34t-33.5 -14q-32 32 -32 85l-8 137q0 25 -7 111q-92 33 -127 69t-53 59t-29 57t-17.5 59.5t-9.5 68.5q-4 57 -4 136zM183 790q0 -362 144 -384q-11 221 -65 744 q-42 -55 -60.5 -160t-18.5 -200z" />
<glyph unicode="&#xa3;" horiz-adv-x="764" d="M64 58q0 26 21.5 44t57.5 31.5t50 24.5q31 24 46.5 95t15.5 138t-15.5 143.5t-48.5 185.5t-43 147q-19 3 -31.5 17.5t-12.5 40t27 41.5q-1 42 -13 133t-12 133t2.5 83t11.5 100.5t23.5 105t42.5 78.5t65 33h65q37 0 77.5 -42.5t65 -96.5t24.5 -90v-9l-32 -35 q-42 0 -52 14.5t-12 16.5q-3 5 -17 32v37q-12 24 -18 50q-23 25 -59 30v-20q-21 -25 -54.5 -119t-33.5 -130q0 -204 19 -294q32 1 100 13.5t97 12.5t44.5 -14.5t15.5 -36t-19 -36t-50 -20t-61 -7.5t-62.5 -2.5t-43.5 -2.5q11 -60 40 -159q67 -227 67 -346q0 -64 -22 -131 t-25 -78q39 -3 127.5 -23.5t140 -20.5t90.5 19l49 -35q0 -82 -106 -82l-100 7h-66q-98 37 -128.5 37t-92.5 -25t-97 -44v4q-22 2 -40 14t-18 38z" />
<glyph unicode="&#xa4;" horiz-adv-x="899" d="M71 268.5q0 24.5 16.5 46t39.5 44t30 33.5q-32 60 -32 175q0 404 72 511q-6 12 -51.5 57.5t-45.5 69t14.5 37t28.5 13.5t23.5 -2.5t16.5 -5t15.5 -9.5t13 -10.5t13 -13.5t11.5 -13q17 -21 21 -29q2 2 25.5 28.5t37.5 40.5q42 44 72 44q120 0 231 -69q8 10 31.5 51 t46 62.5t53.5 21.5l53 -47q-3 -42 -72 -126q-23 -28 -23 -37q0 -60 45 -181.5t45 -186.5t-33.5 -188.5t-33.5 -188.5q0 -30 38.5 -74t38.5 -70t-14.5 -41.5t-39.5 -15.5t-48 14.5t-26 41.5v42q-49 -42 -125.5 -65t-162.5 -23t-175 85q-26 -56 -44.5 -72.5t-45.5 -16.5 t-43.5 21.5t-16.5 46zM235 585q0 -117 56 -164q0 -116 156 -116q56 0 100 36.5t69 89.5t41 121q26 112 26 198.5t-19 188.5t-44 132q-22 4 -37 21.5t-17 39.5q-46 49 -128 49q-18 0 -56 -30t-55 -51v-14l1 -34q0 -43 -35 -43q-18 0 -38 -122t-20 -191l5 -27z" />
<glyph unicode="&#xa5;" horiz-adv-x="938" d="M44 1737q0 37 62 37q78 0 296 -394q91 -163 98 -173q9 23 41 135.5t62.5 214.5t72.5 188.5t75 86.5q23 0 40.5 -15.5t17.5 -38.5v-10q-16 -44 -58 -156q-83 -220 -103.5 -300.5t-43.5 -147.5t-31 -105l178 7q127 0 127 -61q0 -48 -113 -48h-198v-70l196 2q110 0 110 -69 q0 -17 -17.5 -28.5t-38.5 -11.5q-105 0 -255 -4q0 -104 -15.5 -315t-15.5 -319l1 -48q0 -46 -14 -74t-46 -28q-72 0 -72 48v5q17 44 29.5 320t12.5 408h-236q-28 1 -45 21t-17 46.5t24 34.5q135 0 282 8q2 24 2 75h-148q-131 0 -131 52q0 47 81 47l99 -5q52 0 98 7v12 q-32 50 -107 183q-191 334 -291 451q-9 18 -9 32z" />
<glyph unicode="&#xa6;" horiz-adv-x="331" d="M106 1510q0 74 71 74q43 0 43 -191v-516q0 -21 -17 -36t-38 -15q-51 0 -51 194zM119 -29v673q0 20 11 35.5t29 15.5q61 0 61 -74v-637q0 -64 -49 -64q-21 0 -36.5 15t-15.5 36z" />
<glyph unicode="&#xa7;" horiz-adv-x="505" d="M76 822q0 128 91 196q-58 120 -58 257q0 168 163 168q29 0 64 -13t35 -37t-18.5 -32.5t-45 -9t-53.5 -2.5t-45.5 -19.5t-18.5 -66.5t24.5 -110.5t60 -114.5t71.5 -110q84 -134 84 -294q0 -112 -89 -169q74 -116 74 -219q0 -130 -82 -206q-43 -39 -88.5 -39t-77.5 23.5 t-32 49.5q0 47 50 47q20 0 41 -12q41 1 65 51t24 96.5t-17.5 92.5t-44.5 82.5t-57.5 81t-57.5 85.5q-62 96 -62 224zM176 811q0 -60 18 -107q24 -63 89 -155q47 42 47 100.5t-15.5 95.5t-20.5 48.5t-18.5 35t-18 31.5t-20.5 34t-19 31q-42 -54 -42 -114z" />
<glyph unicode="&#xa8;" horiz-adv-x="754" d="M97 1022q0 30 20 51.5t49.5 21.5t50.5 -20t21 -49.5t-25.5 -50.5t-55 -21t-45 19t-15.5 49zM517 1024q0 28 22 51t50 23t48.5 -22.5t20.5 -52t-23 -49.5t-51.5 -20t-47.5 21t-19 49z" />
<glyph unicode="&#xa9;" horiz-adv-x="1233" d="M87 877q0 117 3.5 186.5t15.5 160.5t31.5 169.5t54 157.5t80.5 135q102 126 263 126q293 0 457 -306q125 -233 154 -580q8 -88 8 -169q0 -777 -565 -777q-284 0 -392 179q-68 111 -89 356t-21 362zM204 941.5q0 -53.5 3 -109t8.5 -130.5t12 -186t28.5 -194 q63 -241 305 -241q202 0 316 99.5t163 283.5v430q0 54 -19 129t-30.5 130.5t-32.5 122.5t-55 140q-68 147 -211 242q-81 55 -138.5 55t-111.5 -32t-90 -82.5t-64 -121t-43.5 -140.5t-25 -148.5t-12.5 -136t-3 -111zM296 813v12q0 314 52 461q38 103 78 141q78 72 167 72 t179 -73.5t90 -150.5q0 -21 -15.5 -36.5t-42.5 -15.5t-50 17t-37.5 41t-28.5 48q-34 58 -86 58t-97 -85q-91 -173 -91 -487q0 -196 48 -334q24 -69 65 -109t86 -40t75.5 17t47.5 37q46 54 81 54t50.5 -20.5t15.5 -54.5t-46 -69q-91 -71 -203 -71q-338 0 -338 588z" />
<glyph unicode="&#xaa;" horiz-adv-x="692" d="M104 539q41 67 185 672q15 137 25 155l28 -2q25 0 37 12q13 0 25 -8.5t12 -22.5l134 -679q17 -90 17 -126.5t-16 -45.5q-42 0 -51.5 12t-9.5 38.5t-3.5 65t-7 61.5t-12 72.5t-10.5 63.5q-39 10 -92 10l-54 -2q-14 6 -64 12l-52 -175q-36 -134 -46 -143.5t-27.5 4 t-17.5 26.5zM162 410q0 7 134 12.5t216 5.5q16 0 31 -10.5t15 -24.5q0 -7 -133 -12.5t-184 -5.5t-65 9.5t-14 25.5zM263 892l74 -16q85 -8 99 -14h21l-98 420q-56 -250 -96 -390z" />
<glyph unicode="&#xab;" horiz-adv-x="728" d="M66 687q0 33 55.5 173t125 306.5t80.5 194.5q3 27 22 64t39 58v2l19 4q24 0 43.5 -13t20.5 -36q-47 -108 -139.5 -365t-154.5 -388q20 -100 191 -382q166 -274 166 -318q0 -22 -20.5 -34t-42.5 -12t-122 169.5t-191.5 356.5t-91.5 220zM240 698q2 56 106 282t111.5 252.5 t14.5 56t14 51.5t18 50q25 57 59 57l7 -1l45 -35q-17 -134 -139 -374q-119 -232 -119 -335q0 -15 137.5 -292t173.5 -341q-1 -9 0 -21t0 -24t-3 -22q-4 -24 -28.5 -24t-36.5 4q-32 10 -360 716z" />
<glyph unicode="&#xac;" horiz-adv-x="993" d="M99 763q0 72 218 72l177 -7l323 20q25 0 46 -17t21 -47.5t-19 -63.5q0 -108 24 -183q-3 -24 -17.5 -43t-36.5 -19q-63 0 -63 117l2 67q0 41 -5 68l-73 6l-546 -22q-21 0 -36 15.5t-15 36.5z" />
<glyph unicode="&#xad;" horiz-adv-x="648" d="M104 715q0 25 48.5 43t119.5 26q123 14 206 14q26 0 47 -16.5t21 -42t-48.5 -44t-119.5 -25.5q-128 -14 -207 -14q-26 0 -46.5 17t-20.5 42z" />
<glyph unicode="&#xae;" horiz-adv-x="1161" d="M92 948.5q2 63.5 2.5 133.5t8.5 144t18 147t31 143.5t47 133.5t66 115.5t88 90.5q102 82 256 82q85 0 163.5 -52t134.5 -131q92 -55 145 -567q25 -235 25 -359t-1 -185.5t-10 -179t-25.5 -194t-50.5 -172t-82 -152t-123.5 -96.5t-175 -40t-181 33.5t-135 84.5 t-92.5 133.5t-59.5 158.5t-31.5 182q-17 153 -17 268v163q-3 52 -1 115.5zM211 954q0 -774 134 -927q20 -23 65 -52.5t57 -38.5h59v-20q236 3 340 216q97 199 97 588t-30 605q-70 506 -309 507q-413 0 -413 -878zM372 470v984q0 110 46 146q43 35 142 35q227 0 227 -365 q0 -169 -83 -249q-18 -18 -33.5 -30.5t-18.5 -21.5q3 -76 175 -655q0 -22 17.5 -58.5t17.5 -55.5t-19 -38t-36 -19q-64 0 -129 239q-38 138 -78.5 320.5t-51.5 211.5h-53q-5 -80 -5 -148t22 -263t22 -293q0 -67 -55 -67q-28 0 -50.5 18.5t-22.5 54t-17 123t-17 131.5z M461 1407l8 -144q0 -173 23 -263q178 76 178 272v26q0 227 -104 227q-61 0 -83 -30.5t-22 -87.5z" />
<glyph unicode="&#xaf;" horiz-adv-x="652" d="M106 756q0 44 90 44l144 4q208 0 208 -55q0 -45 -66 -45l-148 -4q-228 0 -228 56z" />
<glyph unicode="&#xb0;" horiz-adv-x="704" d="M99 732q0 102 63 170t163 68q180 0 250 -116q35 -58 35 -104t-6.5 -80t-26 -76.5t-49.5 -75.5q-71 -80 -202 -80q-66 0 -113 29t-71 76q-43 87 -43 189zM176 665q0 -48 48.5 -99t104 -51t94 16.5t60.5 41t36 55.5q23 51 23 89.5t-9.5 65.5t-31 55t-65 45.5t-102.5 17.5 t-96 -38q-62 -64 -62 -198z" />
<glyph unicode="&#xb1;" horiz-adv-x="745" d="M89 200q0 21 12.5 33.5t33.5 12.5h427q74 0 86.5 -17.5t12.5 -36.5q0 -47 -58 -47l-432 -10q-82 0 -82 65zM89 655q0 21 12.5 37t33.5 16l121 -7q26 0 47 4l-12 150q0 113 66 113q24 0 42 -17.5t18 -41.5v-25q0 -6 -0.5 -30.5t0 -48t1.5 -48.5q2 -56 18 -56l119 8 q106 0 106 -62q0 -24 -17 -40t-41 -16l-121 11q-65 0 -65 -49l19 -164q0 -25 -20.5 -40.5t-45.5 -15.5t-46 14.5t-21 37.5l6 199v15l-133 -9q-87 0 -87 65z" />
<glyph unicode="&#xb2;" horiz-adv-x="578" d="M56 47v8q43 51 72 134.5t41 109.5q117 259 174 475t57 467t-98 259q-33 -18 -46 -98q-11 -75 -60.5 -75t-49.5 63q0 99 58 162q31 34 74 34v1q107 0 154 -66q36 -49 45 -88t12.5 -62t5.5 -59q3 -54 3 -111q0 -177 -44.5 -400.5t-113.5 -378.5q-12 -28 -72 -147.5 t-83 -188.5q124 21 232 21q50 -12 50 -46q0 -24 -24 -57l-312 -19q-29 0 -52 17t-23 45z" />
<glyph unicode="&#xb3;" horiz-adv-x="600" d="M53 1416q28 69 78.5 113t114.5 44t111 -51q44 -1 71.5 -156t27.5 -213.5t-9.5 -87.5t-19 -44.5t-32.5 -48.5t-31 -45q126 -75 163 -425q8 -76 8 -131t-2 -90.5t-8.5 -83.5t-21 -83t-37.5 -68q-46 -66 -143 -66q-77 0 -114 31.5t-37 64.5v13h34q11 -2 28.5 -3.5t26.5 -2.5 q21 -2 46 -19q125 5 125 230q0 300 -54 434q-27 66 -71 121q-4 -1 -19.5 -1t-53.5 17v24q0 31 42 80q78 93 78 181q0 79 -14 163q-27 164 -93 164q-25 0 -41.5 -18.5t-23.5 -40t-24.5 -40t-43 -18.5t-41.5 16.5t-20 39.5z" />
<glyph unicode="&#xb4;" horiz-adv-x="530" d="M90 1339v2q2 40 182 167q71 51 86 65q78 0 78 -56q0 -1 -9 -49q-66 -27 -142.5 -79.5t-125.5 -103.5q-69 0 -69 54z" />
<glyph unicode="&#xb5;" horiz-adv-x="686" d="M44 1306v49q49 0 77.5 -38t28.5 -85v-991q0 -112 63 -175q35 -35 86 -35q39 0 67 121q46 199 46 365t13 415.5t13 374.5l-1 34q0 24 11 36t42 12t46 -17t17.5 -34.5t2.5 -47.5l-14 -206l-9 -171l2 -35q-16 -77 -19.5 -249.5t-16 -280t-34 -189t-69 -135.5t-114 -54.5 t-111.5 41.5q3 -89 3 -174t-63 -85q-21 0 -33.5 12.5t-12.5 33.5v301l-7 376v9l11 529q0 177 -25 293z" />
<glyph unicode="&#xb6;" horiz-adv-x="935" d="M63 1384q0 183 55 276q59 99 166 139t274 55q22 22 46.5 22t92.5 -17v-1h54v-4q43 -2 87.5 -17.5t44.5 -46.5q0 -55 -80 -51l14 -597l-12 -877l12 -229q0 -24 -17 -40t-41 -16q-74 0 -74 123l18 1074l-14 446l3 66q0 80 -60 80q-8 0 -8 -99.5t12.5 -335.5t12.5 -371.5 t-18 -440.5t-18 -458q0 -36 -12.5 -54t-43 -18t-48 18.5t-17.5 45.5q0 152 21.5 454t21.5 454l-4 134q-215 0 -325 56q-44 23 -80 66q-42 49 -54 129q-4 23 -9 35zM176 1455q0 -207 168 -243q73 -16 174 -16l15 4l-20 497v43q-27 8 -80 8q-106 0 -181 -92.5t-76 -200.5z" />
<glyph unicode="&#xb7;" horiz-adv-x="361" d="M106 707.5q0 29.5 23 53.5t53 24t52 -24t22 -55.5t-23 -52t-54.5 -20.5t-52 22.5t-20.5 52z" />
<glyph unicode="&#xb8;" horiz-adv-x="461" d="M88 -435q0 28 14 41t41.5 13t56.5 -20q15 1 30.5 22.5t15.5 37.5t-3.5 32.5t-10.5 37.5t-9 31l35 -35v9q0 36 -17 52q-33 -5 -53 -5t-36 12.5t-40 49.5q19 38 19 112v47h112q-11 -57 -13 -93q78 -15 113.5 -78t35.5 -139.5t-56 -136t-110.5 -59.5t-89.5 20.5t-35 48.5z " />
<glyph unicode="&#xb9;" horiz-adv-x="602" d="M55 1521q0 54 165 54q72 0 90 -34q-4 -7 -0.5 -43t3.5 -71t15.5 -160t15.5 -237t22.5 -435.5t22.5 -485.5v-13q48 6 75 6v1q86 0 86 -51q0 -60 -233 -60l-61 -1q-38 0 -60.5 11t-22.5 45v44q65 -5 72 -5q45 0 45 34q0 310 -35 804q-3 43 -11 121q-16 172 -16 263l3 75 q0 96 -71 96l-47 -2q-58 0 -58 44z" />
<glyph unicode="&#xba;" horiz-adv-x="729" d="M136 887q0 31 2.5 76t39.5 257q11 61 66 94q31 19 83 19t115 -11q41 -7 79 -79q81 -130 86 -417q0 -162 -148 -263q-36 -25 -81 -25q-242 0 -242 349zM157 466q0 7 134 12.5t216 5.5q15 0 30 -10.5t15 -24.5q0 -7 -132.5 -12.5t-183.5 -5.5t-65 9.5t-14 25.5zM202 954 q4 -356 167 -356q175 0 175 244q0 304 -64 368q-83 84 -135 84q-125 0 -143 -340z" />
<glyph unicode="&#xbb;" horiz-adv-x="755" d="M59 49q70 129 202.5 384t132.5 269q0 102 -90 280q-112 218 -139 295t-28 134l45 35v-2q44 -21 60 -55t20 -45q10 -24 25 -81.5t119 -281.5t106 -283l-357 -717l-42 -4q-25 0 -39 22.5t-15 49.5zM221 -8q0 24 51.5 118t114.5 198q172 285 192 381q-60 126 -111 295 q-91 309 -185 449q2 25 20.5 41t44.5 16l15 -4v-1q22 -22 42 -58t24 -64q10 -26 80 -194q180 -432 180 -471.5t-91.5 -227t-191 -357t-122 -169.5t-43 12t-20.5 36z" />
<glyph unicode="&#xbc;" horiz-adv-x="1561" d="M55 1521q0 54 165 54q72 0 90 -34q-4 -7 -0.5 -43t3.5 -71t15.5 -160t15.5 -237t22.5 -435.5t22.5 -485.5v-13q48 6 72 6v1q83 0 83 -51q0 -60 -227 -60l-61 -1q-38 0 -60.5 11t-22.5 45v44q65 -5 72 -5q45 0 45 34q0 310 -35 804q-3 43 -11 121q-16 172 -16 263l3 75 q0 96 -71 96l-47 -2q-58 0 -58 44zM609 30q0 136 63 407t146 579.5t95 373.5t15 80l4 22q8 40 23 50.5t30.5 10.5t31 -14t15.5 -39.5t-6.5 -57.5t-17.5 -72q-43 -149 -141 -616t-106.5 -516.5t-16.5 -86.5t-22 -83q-28 -99 -69 -99q-44 29 -44 61zM1115 512q0 46 9 79 q-9 48 -9 116.5t15.5 209.5t15.5 207v379q0 40 39 40q23 0 41.5 -14t18.5 -37l-9 -159q0 -42 8 -74v-7q1 -9 1 -102.5t-14 -267t-14 -229t3 -77.5q33 1 73 11q-2 347 -16.5 445t-14.5 123.5t20 38t43 12.5l42 -36v-129q0 -284 26 -445l59 5q61 0 61 -44q0 -30 -17.5 -40 t-57.5 -10t-40 -18q0 -299 15 -334q-4 -24 -4 -43.5t10 -35.5v-37q0 -77 -49 -77q-31 0 -46 31.5t-15 65.5v7q7 24 7 74l-15 199q0 49 8 89q0 35 -4 63l-109 -11v-1q-39 0 -81 33z" />
<glyph unicode="&#xbd;" horiz-adv-x="1610" d="M55 1521q0 54 165 54q72 0 90 -34q-4 -7 -0.5 -43t3.5 -71t15.5 -160t15.5 -237t22.5 -435.5t22.5 -485.5v-13q48 6 72 6v1q83 0 83 -51q0 -60 -227 -60l-61 -1q-38 0 -60.5 11t-22.5 45v44q65 -5 72 -5q45 0 45 34q0 310 -35 804q-3 43 -11 121q-16 172 -16 263l3 75 q0 96 -71 96l-47 -2q-58 0 -58 44zM609 30q0 136 63 407t146 579.5t95 373.5t15 80l4 22q8 40 23 50.5t30.5 10.5t31 -14t15.5 -39.5t-6.5 -57.5t-17.5 -72q-43 -149 -141 -616t-106.5 -516.5t-16.5 -86.5t-22 -83q-28 -99 -69 -99q-44 29 -44 61zM1096 47v8q39 49 67.5 133 t40.5 111q115 261 171.5 476t56.5 466t-98 259q-33 -18 -46 -98q-11 -75 -58.5 -75t-47.5 63q0 99 56 162q31 34 72 34v1q107 0 154 -66q36 -49 45 -88t12.5 -62t5.5 -59q3 -54 3 -111q0 -177 -44.5 -400.5t-113.5 -378.5q-8 -18 -69 -142t-83 -194q120 21 229 21l62 -52 l-36 -51l-307 -19q-28 0 -50 17t-22 45z" />
<glyph unicode="&#xbe;" horiz-adv-x="1556" d="M53 1416q28 69 78.5 113t114.5 44t111 -51q44 -1 71.5 -156t27.5 -213.5t-9.5 -87.5t-19 -44.5t-32.5 -48.5t-31 -45q126 -75 163 -425q8 -76 8 -131t-2 -90.5t-8.5 -83.5t-21 -83t-37.5 -68q-46 -66 -143 -66q-77 0 -114 31.5t-37 64.5v13h34q11 -2 28.5 -3.5t26.5 -2.5 q21 -2 46 -19q125 5 125 230q0 300 -54 434q-27 66 -71 121q-4 -1 -19.5 -1t-53.5 17v24q0 31 42 80q78 93 78 181q0 79 -14 163q-27 164 -93 164q-25 0 -41.5 -18.5t-23.5 -40t-24.5 -40t-43 -18.5t-41.5 16.5t-20 39.5zM604 30q0 136 63 407t146 579.5t95 373.5t15 80 l5 22q7 40 22 50.5t30.5 10.5t31.5 -14t16 -39.5t-6.5 -57.5t-18.5 -72q-39 -127 -139 -605t-108.5 -527.5t-16.5 -86.5t-21 -83q-29 -99 -70 -99q-44 29 -44 61zM1110 512q0 46 9 79q-9 48 -9 116.5t15.5 209.5t15.5 207v379q0 40 39 40q23 0 41.5 -14t18.5 -37l-9 -159 q0 -42 8 -74v-7q1 -9 1 -102.5t-14 -267t-14 -229t3 -77.5q33 1 73 11q-2 347 -16.5 445t-14.5 123.5t20 38t43 12.5l42 -36v-129q0 -284 26 -445l59 5q61 0 61 -44q0 -30 -17.5 -40t-57.5 -10t-40 -18q0 -299 15 -334q-4 -24 -4 -43.5t10 -35.5v-37q0 -77 -49 -77 q-31 0 -46 31.5t-15 65.5v7q7 24 7 74l-14 199q0 54 7 89q0 35 -4 63l-109 -11v-1q-39 0 -81 33z" />
<glyph unicode="&#xbf;" horiz-adv-x="1161" d="M92 948.5q2 63.5 2.5 133.5t8.5 144t18 147t31 143.5t47 133.5t66 115.5t88 90.5q102 82 256 82q85 0 163.5 -52t134.5 -131q92 -55 145 -567q25 -235 25 -359t-1 -185.5t-10 -179t-25.5 -194t-50.5 -172t-82 -152t-123.5 -96.5t-175 -40t-181 33.5t-135 84.5 t-92.5 133.5t-59.5 158.5t-31.5 182q-17 153 -17 268v163q-3 52 -1 115.5zM211 954q0 -774 134 -927q20 -23 65 -52.5t57 -38.5h59v-20q236 3 340 216q97 199 97 574q0 283 -24.5 513t-96.5 436v15q-31 49 -101.5 105.5t-116.5 56.5q-413 0 -413 -878zM372 470v984 q0 110 46 146q43 35 142 35q227 0 227 -365q0 -169 -83 -249q-18 -18 -33.5 -30.5t-18.5 -21.5q3 -76 175 -655q0 -22 17.5 -58.5t17.5 -55.5t-19 -38t-36 -19q-64 0 -129 239q-38 138 -78.5 320.5t-51.5 211.5h-53q-5 -80 -5 -148t22 -263t22 -293q0 -67 -55 -67 q-28 0 -50.5 18.5t-22.5 54t-17 123t-17 131.5zM461 1407l8 -144q0 -173 23 -263q178 76 178 272v26q0 227 -104 227q-61 0 -83 -30.5t-22 -87.5z" />
<glyph unicode="&#xc0;" d="M57 64q46 67 187 854q55 311 66 361q55 264 119 264q38 0 61 -18v4q40 -287 84 -747t44 -712q0 -69 -67 -69t-67 53v267q-29 20 -103.5 34t-132.5 18q-25 -42 -38.5 -171.5t-43.5 -178.5q-99 0 -109 41zM91 1820q0 51 28 68q69 0 87 -9t24.5 -13t46.5 -17t65.5 -23 t59.5 -26q71 -33 71 -73q0 -17 -15 -28.5t-28.5 -11.5t-34 6t-48 16t-50 18.5t-49.5 19.5t-33 13q-22 -2 -35 -2q-89 0 -89 62zM261 464q85 -23 141 -23t80 6q-3 37 -20 221q-45 470 -45 525.5t1 60.5q-12 -14 -57.5 -290t-51.5 -300t-19 -66q-27 -87 -29 -134z" />
<glyph unicode="&#xc1;" d="M57 64q46 67 187 854q55 311 66 361q55 264 119 264q38 0 61 -18v4q40 -287 84 -747t44 -712q0 -69 -67 -69t-67 53v267q-29 20 -103.5 34t-132.5 18q-25 -42 -38.5 -171.5t-43.5 -178.5q-99 0 -109 41zM261 464q85 -23 141 -23t80 6q-3 37 -20 221q-45 470 -45 525.5 t1 60.5q-12 -14 -57.5 -290t-51.5 -300t-19 -66q-27 -87 -29 -134zM356 1741v2q2 40 182 167q71 51 86 65q78 0 78 -56q0 -1 -9 -49q-66 -27 -142.5 -79.5t-125.5 -103.5q-69 0 -69 54z" />
<glyph unicode="&#xc2;" d="M57 64q46 67 187 854q55 311 66 361q55 264 119 264q38 0 61 -18v4q40 -287 84 -747t44 -712q0 -69 -67 -69t-67 53v267q-29 20 -103.5 34t-132.5 18q-25 -42 -38.5 -171.5t-43.5 -178.5q-99 0 -109 41zM258 1736q4 38 36 128t79.5 172.5t81.5 82.5q52 0 52 -67 q0 -45 31 -124t31 -114v-52l18 -25q0 -23 -20.5 -36.5t-44.5 -13.5h-44q-17 171 -40 266q-8 -24 -22 -69.5t-22 -70.5q-24 -68 -69 -125zM261 464q85 -23 141 -23t80 6q-3 37 -20 221q-45 470 -45 525.5t1 60.5q-12 -14 -57.5 -290t-51.5 -300t-19 -66q-27 -87 -29 -134z " />
<glyph unicode="&#xc3;" d="M57 64q46 67 187 854q55 311 66 361q55 264 119 264q38 0 61 -18v4q40 -287 84 -747t44 -712q0 -69 -67 -69t-67 53v267q-29 20 -103.5 34t-132.5 18q-25 -42 -38.5 -171.5t-43.5 -178.5q-99 0 -109 41zM180 1746q0 70 40.5 119.5t108.5 49.5l102 -52q9 -24 30.5 -48 t43.5 -24v1q6 6 20 13q33 14 33 32l-13 45q16 32 48 32t50 -29t18 -73.5t-39.5 -84t-86 -39.5t-85.5 21.5t-62 44t-56 60.5v2l-53 -31v-98q-34 0 -66.5 15.5t-32.5 43.5zM261 464q85 -23 141 -23t80 6q-3 37 -20 221q-45 470 -45 525.5t1 60.5q-12 -14 -57.5 -290 t-51.5 -300t-19 -66q-27 -87 -29 -134z" />
<glyph unicode="&#xc4;" d="M57 64q46 67 187 854q55 311 66 361q55 264 119 264q38 0 61 -18v4q40 -287 84 -747t44 -712q0 -69 -67 -69t-67 53v267q-29 20 -103.5 34t-132.5 18q-25 -42 -38.5 -171.5t-43.5 -178.5q-99 0 -109 41zM141 1755q0 30 20 51.5t49.5 21.5t50.5 -20t21 -49.5t-25.5 -50.5 t-55 -21t-45 19t-15.5 49zM261 464q85 -23 141 -23t80 6q-3 37 -20 221q-45 470 -45 525.5t1 60.5q-12 -14 -57.5 -290t-51.5 -300t-19 -66q-27 -87 -29 -134zM561 1757q0 28 22 51t50 23t48.5 -22.5t20.5 -52t-23 -49.5t-51.5 -20t-47.5 21t-19 49z" />
<glyph unicode="&#xc5;" d="M57 64q46 67 187 854q55 311 66 361q55 264 119 264q38 0 61 -18v4q40 -287 84 -747t44 -712q0 -69 -67 -69t-67 53v267q-29 20 -103.5 34t-132.5 18q-25 -42 -38.5 -171.5t-43.5 -178.5q-99 0 -109 41zM261 464q85 -23 141 -23t80 6q-3 37 -20 221q-45 470 -45 525.5 t1 60.5q-12 -14 -57.5 -290t-51.5 -300t-19 -66q-27 -87 -29 -134zM312 1687q0 44 35 81.5t79.5 37.5t77.5 -36t33 -83.5t-35.5 -78.5t-82.5 -31t-77 33t-30 77zM402 1663h38q0 43 -14 57v-27z" />
<glyph unicode="&#xc6;" horiz-adv-x="919" d="M67 73.5q0 42.5 26 171.5t74.5 303t87 305.5t94.5 312t61.5 199t11 38.5t7.5 27.5t8.5 26t11.5 27.5t14 22.5t18 19.5q24 18 47 18l156 10q87 0 87 -56v-48q-124 0 -213 -10l14 -274q0 -75 -3 -225t-3 -225q18 2 68 10.5t78 8.5l52 -48q0 -66 -122 -66h-77l6 -539l225 21 q25 0 46.5 -13.5t21.5 -36.5q0 -65 -244 -65h-30q-16 0 -42 -14.5t-39 -16.5l-44 45v1q18 187 18 250l-10 380q-14 -1 -42 -2.5t-45 -2.5q-50 -5 -83 -17l-101 -385q-2 -9 -10.5 -54t-16.5 -78t-26.5 -63t-38 -30t-31.5 15t-12 57.5zM323 688q93 6 147 18q7 259 7 396.5 t-2 180.5q-106 -366 -152 -595z" />
<glyph unicode="&#xc7;" horiz-adv-x="684" d="M82 985q0 168 14 240q-6 33 -6 64q0 126 94 200.5t232 74.5q49 0 96 -27.5t47 -72.5q0 -22 -17 -34t-48.5 -12t-44.5 25v-4h-32v8q-158 0 -198 -133q-20 -67 -20 -175l6 -141l-18 -143q0 -107 27.5 -381.5t53.5 -314.5q44 -67 140 -67t146 59q35 0 65 10v-27 q0 -138 -153 -162q-9 -54 -10 -95q78 -15 113.5 -78t35.5 -139.5t-56 -136t-110.5 -59.5t-89.5 20.5t-35 48.5t14 41t41.5 13t56.5 -20q15 2 30.5 23t15.5 36.5t-3.5 32.5t-10.5 38t-9 31l35 -35v10q0 34 -17 51q-33 -5 -53.5 -5t-36 12.5t-39.5 49.5q19 39 19 113v46 q-60 13 -115 55.5t-87.5 114t-52.5 374.5t-20 471z" />
<glyph unicode="&#xc8;" horiz-adv-x="672" d="M44 1823q0 51 28 68q69 0 87 -9t24.5 -13t46.5 -17t65.5 -23t60.5 -26q70 -33 70 -73q0 -17 -15 -28.5t-28.5 -11.5t-34 6t-48 16t-50 18.5t-49.5 19.5t-33 13q-20 -2 -35 -2q-89 0 -89 62zM277 54v1478l177 18q31 0 62.5 -18.5t31.5 -48.5q0 -61 -93 -61l-59 2 q-15 0 -22 -1l16 -338q0 -41 -5 -119.5t-5 -114.5q11 2 30 7q42 11 65.5 11t42 -17t18.5 -41t-15 -43t-39 -19l-51 2q-23 0 -36 -15v-632q105 6 108 6q114 0 114 -54v-7q-14 -28 -47.5 -43t-58.5 -17t-66 -2h-64q-78 0 -95 29q-9 15 -9 38z" />
<glyph unicode="&#xc9;" horiz-adv-x="528" d="M110 57v1478l177 18q31 0 62.5 -18.5t31.5 -48.5q0 -61 -93 -61l-59 2q-15 0 -22 -1l16 -338q0 -41 -5 -119.5t-5 -114.5q11 2 30 7q42 11 65.5 11t42 -17t18.5 -41t-15 -43t-39 -19l-51 2q-24 0 -36 -15v-632q105 6 108 6q114 0 114 -54v-7q-14 -28 -47.5 -43t-58.5 -17 t-66 -2h-64q-78 0 -96 30q-8 14 -8 37zM142 1744v2q2 40 182 168q71 50 86 64q78 0 78 -56q0 -1 -9 -49q-66 -27 -142.5 -79.5t-125.5 -103.5q-69 0 -69 54z" />
<glyph unicode="&#xca;" horiz-adv-x="510" d="M50 1740q4 38 36 128t79.5 172.5t81.5 82.5q52 0 52 -67q0 -45 31 -124t31 -114v-52l18 -25q0 -23 -20.5 -36.5t-44.5 -13.5h-44q-17 171 -40 266q-8 -24 -22 -69.5t-22 -70.5q-24 -68 -69 -125zM115 55v1478l177 18q31 0 62.5 -18.5t31.5 -48.5q0 -61 -93 -61l-59 2 q-15 0 -22 -1l16 -338q0 -41 -5 -119.5t-5 -114.5q11 2 30 7q42 11 65.5 11t42 -17t18.5 -41t-15 -43t-39 -19l-51 2q-24 0 -36 -15v-632q105 6 108 6q114 0 114 -54v-7q-14 -28 -47.5 -43t-58.5 -17t-66 -2h-64q-78 0 -95 30q-9 14 -9 37z" />
<glyph unicode="&#xcb;" horiz-adv-x="648" d="M43 1758.5q0 29.5 20 51t49.5 21.5t50.5 -20t21 -49.5t-25.5 -50.5t-54.5 -21t-45 19.5t-16 49zM226 54v1478l177 18q31 0 62.5 -18.5t31.5 -48.5q0 -61 -93 -61l-59 2q-15 0 -22 -1l16 -338q0 -41 -5 -119.5t-5 -114.5q11 2 30 7q42 11 65.5 11t42 -17t18.5 -41t-15 -43 t-39 -19l-51 2q-24 0 -36 -15v-632q105 6 108 6q114 0 114 -54v-7q-14 -28 -47.5 -43t-58.5 -17t-66 -2h-64q-78 0 -96 29q-8 15 -8 38zM463 1760q0 28 22 51t50 23t48.5 -22.5t20.5 -52t-23 -49.5t-51.5 -20t-47.5 21t-19 49z" />
<glyph unicode="&#xcc;" horiz-adv-x="681" d="M45 1823q0 51 28 68q69 0 87 -9t24.5 -13t46.5 -17t65.5 -23t59.5 -26q71 -33 71 -73q0 -17 -15 -28.5t-28.5 -11.5t-34 6t-48 16t-50 18.5t-49.5 19.5t-33 13q-20 -2 -35 -2q-89 0 -89 62zM256 61.5q0 50.5 62 50.5l43 -3q30 0 30 48q0 158 -19 473.5t-19 473.5l4 209 q0 66 -5 114q-27 -9 -48 -9q-48 0 -48 49q0 25 31 43.5t77 26.5q86 15 127.5 15t59.5 -16.5t18 -39t-13.5 -39t-34.5 -16.5l-36 1q-20 0 -29.5 -8.5t-9.5 -33.5q0 -200 26 -599t26 -599v-79q21 3 40 3q85 0 85 -72v-12l-51 -35l-74 10v1h-37q-10 0 -27 -6q-30 -10 -49 -1 q-129 0 -129 50.5z" />
<glyph unicode="&#xcd;" horiz-adv-x="502" d="M61 64.5q0 50.5 62 50.5l43 -3q30 0 30 48q0 158 -19 473.5t-19 473.5l4 209q0 66 -5 114q-27 -9 -48 -9q-48 0 -48 49q0 25 31 43.5t77 26.5q86 15 127.5 15t59.5 -16.5t18 -39t-13.5 -39t-34.5 -16.5l-36 1q-20 0 -29.5 -8.5t-9.5 -33.5q0 -200 26 -599t26 -599v-79 q21 3 40 3q85 0 85 -72v-12l-51 -35l-74 10v1h-37q-10 0 -26 -5q-31 -11 -50 -2q-129 0 -129 50.5zM116 1744v2q2 40 182 168q71 50 86 64q78 0 78 -56q0 -1 -9 -49q-66 -27 -142.5 -79.5t-125.5 -103.5q-69 0 -69 54z" />
<glyph unicode="&#xce;" horiz-adv-x="512" d="M43 1741q4 38 36 128t79.5 172.5t81.5 82.5q52 0 52 -67q0 -45 31 -124t31 -114v-52l18 -25q0 -23 -20.5 -36.5t-44.5 -13.5h-44q-17 171 -40 266q-8 -24 -22 -69.5t-23 -70.5q-23 -68 -68 -125zM87 62.5q0 50.5 62 50.5l43 -3q30 0 30 48q0 158 -19 473.5t-19 473.5 l4 209q0 66 -5 114q-27 -9 -48 -9q-48 0 -48 49q0 25 31 43.5t77 26.5q86 15 127.5 15t59.5 -16.5t18 -39t-13.5 -39t-34.5 -16.5l-36 1q-20 0 -29.5 -8.5t-9.5 -33.5q0 -200 26 -599t26 -599v-79q21 3 40 3q85 0 85 -72v-12l-51 -35l-74 10v1h-37q-10 0 -26 -5 q-31 -11 -50 -2q-129 0 -129 50.5z" />
<glyph unicode="&#xcf;" horiz-adv-x="650" d="M45 1758.5q0 29.5 20 51t49.5 21.5t50.5 -20t21 -49.5t-25.5 -50.5t-54.5 -21t-45 19.5t-16 49zM206 61.5q0 50.5 62 50.5l43 -3q30 0 30 48q0 158 -19 473.5t-19 473.5l4 209q0 66 -5 114q-27 -9 -48 -9q-48 0 -48 49q0 25 31 43.5t77 26.5q86 15 127.5 15t59.5 -16.5 t18 -39t-13.5 -39t-34.5 -16.5l-36 1q-20 0 -29.5 -8.5t-9.5 -33.5q0 -200 26 -599t26 -599v-79q21 3 40 3q85 0 85 -72v-12l-51 -35l-74 10v1h-37q-10 0 -27 -6q-30 -10 -49 -1q-129 0 -129 50.5zM465 1760q0 28 22 51t50 23t48.5 -22.5t20.5 -52t-23 -49.5t-51.5 -20 t-47.5 21t-19 49z" />
<glyph unicode="&#xd0;" horiz-adv-x="868" d="M47 1184q0 60 125 60h31q-1 148 -22.5 451t-21.5 459q0 22 17 44t39 22q65 0 172 -68.5t189.5 -162.5t82.5 -158q0 -204 58.5 -511t58.5 -525.5t-118 -432.5t-318 -317v2q-60 18 -82 60q0 685 -52 1030q-84 -12 -107.5 -12t-37.5 17.5t-14 41.5zM277 1829q0 -369 42 -577 q33 2 111.5 12t114.5 10t54 -25t20 -55l-34 -41q-169 0 -265 -12v-1q4 -149 28 -461t27 -475q252 220 279 600q5 78 5 164t-0.5 137t-4.5 135t-11 148t-20.5 148t-32.5 148t-48.5 134t-65.5 120q-83 114 -199 159v-268z" />
<glyph unicode="&#xd1;" horiz-adv-x="793" d="M93 812v261l14 376q0 76 11 85q26 20 59 20t55 -18t22 -47.5t9 -63t25.5 -75t25 -71t16.5 -102t20.5 -136t59.5 -211t83.5 -282t44.5 -250.5q18 -30 21 -73l7 714v606q12 51 67.5 51t55.5 -80v-12q-13 -27 -13 -60l-8 -757v-626q0 -35 -23 -58.5t-57 -23.5t-49.5 15.5 t-20 32.5t-9 46.5t-18.5 80.5t-73 246q-121 392 -164 637q-1 7 -2 24q-2 36 -14 51q1 42 -18.5 107.5t-22.5 78.5v-1296h-72v38q4 15 -1 63t-5 114t-13 304t-13 291zM125 1755q0 69 40 119t107 50l100 -52q9 -24 30.5 -48t42.5 -24v1q6 6 21 13q31 14 31 32l-13 45 q16 32 47 32t49 -29t18 -73.5t-39 -84t-84.5 -39.5t-83.5 21.5t-61 44t-55 60.5v2l-52 -31v-98q-34 0 -66 15.5t-32 43.5z" />
<glyph unicode="&#xd2;" horiz-adv-x="694" d="M0 1820q0 51 28 68q69 0 87 -9t24.5 -13t46.5 -17t65.5 -23t59.5 -26q71 -33 71 -73q0 -17 -15 -28.5t-28.5 -11.5t-34 6t-48 16t-50 18.5t-49.5 19.5t-33 13q-22 -2 -35 -2q-89 0 -89 62zM81 765.5q0 85.5 3 140.5q4 101 9 179.5t6 120.5t2 71t6 71.5t12 72.5t21.5 63 t34.5 54q46 47 103 47t91 -11t57.5 -28.5t43 -46t32 -55.5t22.5 -65q13 -48 26 -137q49 -350 49 -624l-18 -259v-9q-13 -57 -13 -123t-22.5 -127.5t-69 -109t-101.5 -47.5t-100.5 38t-75 97.5t-52.5 142t-35 161t-20 165.5q-11 133 -11 218.5zM173 852q0 -165 31 -378 q62 -419 175 -419q40 0 68 76.5t39 191.5q20 195 20 282.5t-0.5 125.5t-3 110.5t-8.5 136t-15 140.5t-24.5 137t-35.5 112.5t-49.5 81t-57 28.5t-44.5 -14t-29 -42t-22 -59.5t-16.5 -77t-11.5 -82.5t-8 -88t-5 -83t-2.5 -77t-0.5 -60v-42z" />
<glyph unicode="&#xd3;" horiz-adv-x="694" d="M81 765.5q0 85.5 3 140.5q4 101 9 179.5t6 120.5t2 71t6 71.5t12 72.5t21.5 63t34.5 54q46 47 103 47t91 -11t57.5 -28.5t43 -46t32 -55.5t22.5 -65q13 -48 26 -137q49 -350 49 -624l-18 -259v-9q-13 -57 -13 -123t-22.5 -127.5t-69 -109t-101.5 -47.5t-100.5 38 t-75 97.5t-52.5 142t-35 161t-20 165.5q-11 133 -11 218.5zM173 852q0 -165 31 -378q62 -419 175 -419q40 0 68 76.5t39 191.5q20 195 20 282.5t-0.5 125.5t-3 110.5t-8.5 136t-15 140.5t-24.5 137t-35.5 112.5t-49.5 81t-57 28.5t-44.5 -14t-29 -42t-22 -59.5t-16.5 -77 t-11.5 -82.5t-8 -88t-5 -83t-2.5 -77t-0.5 -60v-42zM268 1741v2q2 40 182 167q71 51 86 65q78 0 78 -56q0 -1 -9 -49q-66 -27 -142.5 -79.5t-125.5 -103.5q-69 0 -69 54z" />
<glyph unicode="&#xd4;" horiz-adv-x="694" d="M81 813q0 -64 2 -121.5t9.5 -144.5t19.5 -165.5t35 -161t52.5 -142t75 -97.5t100.5 -38t101.5 47.5t69.5 109t23 118.5t17 132v9l13 259q0 340 -60 694q-29 171 -113 234q-53 39 -111.5 39t-89 -13.5t-50.5 -34t-34.5 -53.5t-21.5 -63t-12 -72.5t-6 -71.5t-2 -71 t-2.5 -66.5t-6.5 -101.5q-9 -161 -9 -225zM142 1740q7 70 76 226.5t119 156.5t50 -67q0 -45 30 -124t30 -114v-52l18 -25q0 -23 -20.5 -36.5t-43.5 -13.5h-43q-18 178 -39 266q-8 -23 -21.5 -69t-21.5 -70q-24 -69 -68 -126zM173 852v42q0 89 2.5 129t5.5 91t8 88t11.5 82.5 t16.5 77t22 59.5t29 42t44.5 14t57 -28.5t49.5 -81t35.5 -112.5t24.5 -137t15 -140.5t8 -135.5q4 -102 4 -174t-4 -151t-15.5 -194t-39.5 -191.5t-68 -76.5q-56 0 -99.5 103t-65.5 248q-41 281 -41 446z" />
<glyph unicode="&#xd5;" horiz-adv-x="698" d="M67 1749q0 70 40 119.5t108 49.5l100 -52q9 -24 30.5 -48t42.5 -24v1q6 6 20 13q32 14 32 32l-13 45q16 32 47 32t49 -29t18 -73.5t-39 -84t-84.5 -39.5t-83.5 21.5t-61 44t-55 60.5v2l-52 -31v-98q-34 0 -66.5 15.5t-32.5 43.5zM85 813q0 -64 2 -121.5t9.5 -144.5 t19.5 -165.5t35 -161t52.5 -142t75 -97.5t100.5 -38t101.5 47.5t69.5 109t23 118.5t17 132v9l13 259q0 340 -60 694q-29 171 -113 234q-53 39 -111.5 39t-89 -13.5t-50.5 -34t-34.5 -53.5t-21.5 -63t-12 -72.5t-6 -71.5t-2 -71t-2.5 -66.5t-6.5 -101.5q-9 -161 -9 -225z M177 852v42q0 89 2.5 129t5.5 91t8 88t11.5 82.5t16.5 77t22 59.5t29 42t44.5 14t57 -28.5t49.5 -81t35.5 -112.5t24.5 -137t15 -140.5t8 -135.5q4 -102 4 -174t-4 -151t-15.5 -194t-39.5 -191.5t-68 -76.5q-56 0 -99.5 103t-65.5 248q-41 281 -41 446z" />
<glyph unicode="&#xd6;" horiz-adv-x="719" d="M48 1758q0 30 20 51.5t49.5 21.5t50.5 -20t21 -49.5t-25.5 -50.5t-55 -21t-45 19t-15.5 49zM105 812q0 -64 2 -121.5t9.5 -144.5t19.5 -165.5t35 -161t52.5 -142t75 -97.5t100.5 -38t101.5 47.5t69.5 109t23 118.5t17 132v9l13 259q0 339 -60 693q-29 172 -113 234 q-53 40 -111.5 40t-89 -13.5t-50.5 -34t-34.5 -53.5t-21.5 -63t-12 -72.5t-6 -71.5t-2 -71t-2.5 -66.5t-6.5 -100.5q-9 -162 -9 -226zM197 851v42q0 89 2.5 129t5.5 91t8 88t11.5 82.5t16.5 77t22 59.5t29 42t44.5 14t57 -28.5t49.5 -81t35.5 -112.5t24.5 -137t15 -140.5 t8 -136.5q4 -101 4 -173t-4 -151t-15.5 -194t-39.5 -191.5t-68 -76.5q-56 0 -99.5 103t-65.5 249q-41 280 -41 445zM463 1760q0 28 21.5 51t49 23t48 -22.5t20.5 -52t-23 -49.5t-51.5 -20t-46.5 21t-18 49z" />
<glyph unicode="&#xd7;" horiz-adv-x="646" d="M65 823q0 23 18.5 40t36 17t55.5 -32t85 -76.5t54 -50.5q28 14 62 60q63 85 111 85q21 0 37.5 -17t16.5 -38.5t-21.5 -44.5t-47.5 -40q-69 -43 -69 -83q0 -35 79.5 -82.5t79.5 -82t-22.5 -57t-50.5 -22.5h-33q-9 8 -43 49q-92 111 -103 114q-10 -1 -34 -34 q-73 -98 -118 -98q-23 0 -42.5 19t-19.5 38.5t27 47.5t62 58.5t45 44.5q-5 5 -58 47q-107 85 -107 138z" />
<glyph unicode="&#xd8;" horiz-adv-x="619" d="M89 747l3 361v48q0 204 50 320q41 94 120 94q28 0 54 -22v4l52 247h77q-2 -52 -23.5 -160t-21.5 -166q0 -21 35 -53v-54q1 -24 24.5 -71t23.5 -72v-16q2 -59 16 -181.5t15 -174t2 -129.5q4 -182 4 -246.5t-0.5 -94t-5 -85t-12 -92t-24 -82t-39.5 -72.5q-55 -66 -140 -66 q-46 0 -82 20q-7 -46 -26 -147l-27 -137l-70 56q0 60 29.5 176.5t29.5 176.5q-66 220 -64 618zM183 850q0 -82 12.5 -197t15.5 -150q17 158 38.5 392.5t28 295t11.5 96t8 59.5q8 62 8 94q0 49 -38 52v-1h-34v-11q-50 -107 -50 -630zM251 135q0 -32 12 -47.5t52 -15.5 q106 0 106 392v172q0 400 -43 661q-15 -121 -45.5 -491t-56 -504.5t-25.5 -166.5z" />
<glyph unicode="&#xd9;" horiz-adv-x="752" d="M45 1820q0 51 28 68q69 0 87 -9t24.5 -13t46.5 -17t65.5 -23t59.5 -26q71 -33 71 -73q0 -17 -15 -28.5t-28.5 -11.5t-34 6t-48 16t-50 18.5t-49.5 19.5t-33 13q-22 -2 -35 -2q-89 0 -89 62zM67 1477q0 25 17.5 44t41.5 19q74 0 74 -146l19 -712q12 -27 20.5 -109 t8.5 -127.5t14.5 -112t39.5 -134.5t67.5 -116t90.5 -48q78 0 82 141q1 18 1 43v919q0 58 -22 175.5t-22 159t20.5 57t46.5 15.5l62 -48v-34l-18 -125q0 -119 15 -348.5t16 -340.5v-3l4 -60l6 -126v-31l-5 -22l1 -119q0 -180 -51 -255q-48 -70 -149 -70q-123 0 -187 89 q-56 76 -82 204q-33 154 -53 218q-2 5 -22.5 458t-20.5 503q-15 17 -15 42z" />
<glyph unicode="&#xda;" horiz-adv-x="752" d="M67 1477q0 25 17.5 44t41.5 19q74 0 74 -146l19 -712q12 -27 20.5 -109t8.5 -127.5t14.5 -112t39.5 -134.5t67.5 -116t90.5 -48q78 0 82 141q1 18 1 43v919q0 58 -22 175.5t-22 159t20.5 57t46.5 15.5l62 -48v-34l-18 -125q0 -119 15 -348.5t16 -340.5v-3l4 -60l6 -126 v-31l-5 -22l1 -119q0 -180 -51 -255q-48 -70 -149 -70q-123 0 -187 89q-56 76 -82 204q-33 154 -53 218q-2 5 -22.5 458t-20.5 503q-15 17 -15 42zM313 1741v2q2 40 182 167q71 51 86 65q78 0 78 -56q0 -1 -9 -49q-66 -27 -142.5 -79.5t-125.5 -103.5q-69 0 -69 54z" />
<glyph unicode="&#xdb;" horiz-adv-x="752" d="M67 1477q0 25 17.5 44t41.5 19q74 0 74 -146l19 -712q12 -27 20.5 -109t8.5 -127.5t14.5 -112t39.5 -134.5t67.5 -116t90.5 -48q78 0 82 141q1 18 1 43v919q0 58 -22 175.5t-22 159t20.5 57t46.5 15.5l62 -48v-34l-18 -125q0 -119 15 -348.5t16 -340.5v-3l4 -60l6 -126 v-31l-5 -22l1 -119q0 -180 -51 -255q-48 -70 -149 -70q-123 0 -187 89q-56 76 -82 204q-33 154 -53 218q-2 5 -22.5 458t-20.5 503q-15 17 -15 42zM209 1736q4 38 36 128t79.5 172.5t81.5 82.5q52 0 52 -67q0 -45 31 -124t31 -114v-52l18 -25q0 -23 -20.5 -36.5t-44.5 -13.5 h-44q-17 171 -40 266q-8 -24 -22 -69.5t-22 -70.5q-24 -68 -69 -125z" />
<glyph unicode="&#xdc;" horiz-adv-x="752" d="M67 1477q0 25 17.5 44t41.5 19q74 0 74 -146l19 -712q12 -27 20.5 -109t8.5 -127.5t14.5 -112t39.5 -134.5t67.5 -116t90.5 -48q78 0 82 141q1 18 1 43v919q0 58 -22 175.5t-22 159t20.5 57t46.5 15.5l62 -48v-34l-18 -125q0 -119 15 -348.5t16 -340.5v-3l4 -60l6 -126 v-31l-5 -22l1 -119q0 -180 -51 -255q-48 -70 -149 -70q-123 0 -187 89q-56 76 -82 204q-33 154 -53 218q-2 5 -22.5 458t-20.5 503q-15 17 -15 42zM90 1755q0 30 20 51.5t49.5 21.5t50.5 -20t21 -49.5t-25.5 -50.5t-55 -21t-45 19t-15.5 49zM510 1757q0 28 22 51t50 23 t48.5 -22.5t20.5 -52t-23 -49.5t-51.5 -20t-47.5 21t-19 49z" />
<glyph unicode="&#xdd;" horiz-adv-x="522" d="M53 1513q0 33 65 33q15 0 31 -12t17 -27q20 -236 102 -501q4 18 9.5 85.5t13 138.5t19.5 144q27 165 81.5 165t54.5 -22q0 -115 -49 -343t-49 -346l6 -71v-31l-1 -543l-1 -102v-46q0 -27 -18 -43.5t-40.5 -16.5t-38 14.5t-15.5 35.5l10 396q0 60 -19.5 177.5t-19.5 189 t-24.5 174t-54.5 184.5q-79 214 -79 367zM215 1741v2q2 40 182 167q71 51 86 65q78 0 78 -56q0 -1 -9 -49q-66 -27 -142.5 -79.5t-125.5 -103.5q-69 0 -69 54z" />
<glyph unicode="&#xde;" horiz-adv-x="553" d="M98 1297v190q0 61 49 61q70 0 70 -124l-2 -71q83 -12 143 -76q113 -121 113 -312q0 -149 -64 -272t-186 -191l15 -428q0 -85 -67 -85q-25 0 -37 21.5t-12 47.5zM216 601q149 147 149 347q0 150 -52 212q-27 33 -95 89q0 -108 -1 -324t-1 -324z" />
<glyph unicode="&#xdf;" horiz-adv-x="620" d="M101 1249q0 239 112 313q36 23 81 23t79 -24t53.5 -60t31.5 -83q22 -81 22 -169q0 -181 -122 -390q108 -83 144.5 -173.5t36.5 -223.5q0 -269 -178 -413l-15 -4q-16 0 -31.5 10t-15.5 26t22 50t48.5 70t48.5 93t22 139t-17.5 159.5t-43 116t-50.5 63.5t-42.5 43.5 t-17.5 36t29 88.5q85 213 85 334q0 49 -14 100q-27 99 -73 99q-70 0 -90 -127q-5 -28 -5 -144t15.5 -531.5t15.5 -624.5q0 -43 -13.5 -68t-52.5 -25q-60 0 -60 51l10 534z" />
<glyph unicode="&#xe0;" horiz-adv-x="674" d="M63 44q54 207 92.5 434t46 269.5t35 164t33 162.5t10.5 106q9 142 37 183h69q70 0 70 -42q0 -395 77 -785q4 -23 15 -64q24 -89 24 -141l-11 -41q0 -25 18 -122t18 -127v-2q0 -46 -31 -58q-43 0 -67 14t-24 70.5t-30 232.5l-63 6h-68q-23 10 -81 10q0 -2 -2.5 -26.5 t-4 -39.5t-5 -44.5t-7.5 -50t-10 -48t-13.5 -46t-16.5 -35.5q-18 -35 -44 -35t-46.5 15.5t-20.5 39.5zM87 1613q0 51 28 68q69 0 87 -9t24.5 -13t46.5 -17t65.5 -23t59.5 -26q71 -33 71 -73q0 -17 -15 -28.5t-28.5 -11.5t-34 6t-48 16t-50 18.5t-49.5 19.5t-33 13 q-22 -2 -35 -2q-89 0 -89 62zM251 408q35 -23 181 -33q-6 30 -6 97t-8.5 162.5t-24.5 221.5t-22 182q-12 -58 -47 -194q-71 -283 -73 -436z" />
<glyph unicode="&#xe1;" horiz-adv-x="674" d="M63 44q54 207 92.5 434t46 269.5t35 164t33 162.5t10.5 106q9 142 37 183h69q70 0 70 -42q0 -395 77 -785q4 -23 15 -64q24 -89 24 -141l-11 -41q0 -25 18 -122t18 -127v-2q0 -46 -31 -58q-43 0 -67 14t-24 70.5t-30 232.5l-63 6h-68q-23 10 -81 10q0 -2 -2.5 -26.5 t-4 -39.5t-5 -44.5t-7.5 -50t-10 -48t-13.5 -46t-16.5 -35.5q-18 -35 -44 -35t-46.5 15.5t-20.5 39.5zM251 408q35 -23 181 -33q-6 30 -6 97t-8.5 162.5t-24.5 221.5t-22 182q-12 -58 -47 -194q-71 -283 -73 -436zM355 1534v2q2 40 182 167q71 51 86 65q78 0 78 -56 q0 -1 -9 -49q-66 -27 -142.5 -79.5t-125.5 -103.5q-69 0 -69 54z" />
<glyph unicode="&#xe2;" horiz-adv-x="674" d="M63 44q54 207 92.5 434t46 269.5t35 164t33 162.5t10.5 106q9 142 37 183h69q70 0 70 -42q0 -395 77 -785q4 -23 15 -64q24 -89 24 -141l-11 -41q0 -25 18 -122t18 -127v-2q0 -46 -31 -58q-43 0 -67 14t-24 70.5t-30 232.5l-63 6h-68q-23 10 -81 10q0 -2 -2.5 -26.5 t-4 -39.5t-5 -44.5t-7.5 -50t-10 -48t-13.5 -46t-16.5 -35.5q-18 -35 -44 -35t-46.5 15.5t-20.5 39.5zM251 408q35 -23 181 -33q-6 30 -6 97t-8.5 162.5t-24.5 221.5t-22 182q-12 -58 -47 -194q-71 -283 -73 -436zM251 1529q4 38 36 128t79.5 172.5t81.5 82.5q52 0 52 -67 q0 -45 31 -124t31 -114v-52l18 -25q0 -23 -20.5 -36.5t-44.5 -13.5h-44q-17 171 -40 266q-8 -24 -22 -69.5t-22 -70.5q-24 -68 -69 -125z" />
<glyph unicode="&#xe3;" horiz-adv-x="674" d="M63 44q54 207 92.5 434t46 269.5t35 164t33 162.5t10.5 106q9 142 37 183h69q70 0 70 -42q0 -395 77 -785q4 -23 15 -64q24 -89 24 -141l-11 -41q0 -25 18 -122t18 -127v-2q0 -46 -31 -58q-43 0 -67 14t-24 70.5t-30 232.5l-63 6h-68q-23 10 -81 10q0 -2 -2.5 -26.5 t-4 -39.5t-5 -44.5t-7.5 -50t-10 -48t-13.5 -46t-16.5 -35.5q-18 -35 -44 -35t-46.5 15.5t-20.5 39.5zM172 1539q0 70 40.5 119.5t108.5 49.5l102 -52q9 -24 30.5 -48t43.5 -24v1q6 6 20 13q33 14 33 32l-13 45q16 32 48 32t50 -29t18 -73.5t-39.5 -84t-86 -39.5t-85.5 21.5 t-62 44t-56 60.5v2l-53 -31v-98q-34 0 -66.5 15.5t-32.5 43.5zM251 408q35 -23 181 -33q-6 30 -6 97t-8.5 162.5t-24.5 221.5t-22 182q-12 -58 -47 -194q-71 -283 -73 -436z" />
<glyph unicode="&#xe4;" horiz-adv-x="674" d="M63 44q54 207 92.5 434t46 269.5t35 164t33 162.5t10.5 106q9 142 37 183h69q70 0 70 -42q0 -395 77 -785q4 -23 15 -64q24 -89 24 -141l-11 -41q0 -25 18 -122t18 -127v-2q0 -46 -31 -58q-43 0 -67 14t-24 70.5t-30 232.5l-63 6h-68q-23 10 -81 10q0 -2 -2.5 -26.5 t-4 -39.5t-5 -44.5t-7.5 -50t-10 -48t-13.5 -46t-16.5 -35.5q-18 -35 -44 -35t-46.5 15.5t-20.5 39.5zM132 1548q0 30 20 51.5t49.5 21.5t50.5 -20t21 -49.5t-25.5 -50.5t-55 -21t-45 19t-15.5 49zM251 408q35 -23 181 -33q-6 30 -6 97t-8.5 162.5t-24.5 221.5t-22 182 q-12 -58 -47 -194q-71 -283 -73 -436zM552 1550q0 28 22 51t50 23t48.5 -22.5t20.5 -52t-23 -49.5t-51.5 -20t-47.5 21t-19 49z" />
<glyph unicode="&#xe5;" horiz-adv-x="674" d="M63 44q54 207 92.5 434t46 269.5t35 164t33 162.5t10.5 106q9 142 37 183h69q70 0 70 -42q0 -395 77 -785q4 -23 15 -64q24 -89 24 -141l-11 -41q0 -25 18 -122t18 -127v-2q0 -46 -31 -58q-43 0 -67 14t-24 70.5t-30 232.5l-63 6h-68q-23 10 -81 10q0 -2 -2.5 -26.5 t-4 -39.5t-5 -44.5t-7.5 -50t-10 -48t-13.5 -46t-16.5 -35.5q-18 -35 -44 -35t-46.5 15.5t-20.5 39.5zM251 408q35 -23 181 -33q-6 30 -6 97t-8.5 162.5t-24.5 221.5t-22 182q-12 -58 -47 -194q-71 -283 -73 -436zM303 1590q0 44 35 81.5t79.5 37.5t77.5 -36t33 -83.5 t-35.5 -78.5t-82.5 -31t-77 33t-30 77zM393 1566h38q0 43 -14 57v-27z" />
<glyph unicode="&#xe6;" horiz-adv-x="921" d="M67 48q0 156 235 814q113 318 123 353t15.5 49.5t17.5 34.5q22 39 84 47t145.5 8t83.5 -56v-48q-64 -10 -213 -10l14 -274l-6 -290l156 9l42 -38q0 -51 -115 -50h-84l6 -515l225 21q25 0 46.5 -13.5t21.5 -36.5q0 -67 -275 -67l-80 1q-14 0 -27.5 9t-13.5 23l15 234 l-10 340q-14 -1 -42 -2.5t-45 -2.5q-50 -5 -83 -17l-169 -578q-18 0 -42.5 20t-24.5 35zM323 648q83 3 147 18q7 168 7 271t-2 146q-118 -301 -152 -435z" />
<glyph unicode="&#xe7;" horiz-adv-x="568" d="M77 615q0 589 144 695q74 54 206 54q22 0 40.5 -16t18.5 -37v-8q-19 -47 -99 -47l-37 2q-34 0 -60.5 -37t-40.5 -89t-23 -116q-14 -101 -14 -189v-10l-13 -395q0 -125 13.5 -173t28 -77.5t34.5 -48.5q46 -44 118 -44q24 0 44 18q62 0 62 -45q0 -81 -114 -81 q-47 0 -96.5 13.5t-74.5 29.5q-136 88 -136 481zM324 -469q0 28 14 41t41.5 13t56.5 -20q15 1 30.5 22.5t15.5 37.5t-3.5 32.5t-10.5 37.5t-9 31l35 -35v9q0 36 -17 52q-33 -5 -53 -5t-36 12.5t-40 49.5q19 38 19 112v47h112q-11 -57 -13 -93q78 -15 113.5 -78t35.5 -139.5 t-56 -136t-110.5 -59.5t-89.5 20.5t-35 48.5z" />
<glyph unicode="&#xe8;" horiz-adv-x="517" d="M-64 1613q0 51 28 68q69 0 87 -9t24.5 -13t46.5 -17t65.5 -23t59.5 -26q71 -33 71 -73q0 -17 -15 -28.5t-28.5 -11.5t-34 6t-48 16t-50 18.5t-49.5 19.5t-33 13q-22 -2 -35 -2q-89 0 -89 62zM102 436l14 598l-11 173q0 145 86 145q24 0 45 -15q8 -1 38.5 -3.5t53.5 -6.5 t50 -11q58 -16 58 -55q0 -42 -60 -64q-94 32 -155 39q3 -44 3 -88l-9 -294q0 -2 6 -32l73 3q99 0 99 -56q0 -30 -17.5 -53t-49.5 -23t-56 18h-52q6 -78 6 -148l-9 -371q0 -115 74 -115l81 5q78 0 78 -50q0 -31 -27 -45t-61 -14h-193q-26 0 -44.5 18t-20 46t4 70t5.5 67z" />
<glyph unicode="&#xe9;" horiz-adv-x="517" d="M102 436l14 598l-11 173q0 145 86 145q24 0 45 -15q8 -1 38.5 -3.5t53.5 -6.5t50 -11q58 -16 58 -55q0 -42 -60 -64q-94 32 -155 39q3 -44 3 -88l-9 -294q0 -2 6 -32l73 3q99 0 99 -56q0 -30 -17.5 -53t-49.5 -23t-56 18h-52q6 -78 6 -148l-9 -371q0 -115 74 -115l81 5 q78 0 78 -50q0 -31 -27 -45t-61 -14h-193q-26 0 -44.5 18t-20 46t4 70t5.5 67zM162 1534v2q2 40 182 167q71 51 86 65q78 0 78 -56q0 -1 -9 -49q-66 -27 -142.5 -79.5t-125.5 -103.5q-69 0 -69 54z" />
<glyph unicode="&#xea;" horiz-adv-x="517" d="M100 1529q4 38 36 128t79.5 172.5t81.5 82.5q52 0 52 -67q0 -45 31 -124t31 -114v-52l18 -25q0 -23 -20.5 -36.5t-44.5 -13.5h-44q-17 171 -40 266q-8 -24 -22 -69.5t-22 -70.5q-24 -68 -69 -125zM102 436l14 598l-11 173q0 145 86 145q24 0 45 -15q8 -1 38.5 -3.5 t53.5 -6.5t50 -11q58 -16 58 -55q0 -42 -60 -64q-94 32 -155 39q3 -44 3 -88l-9 -294q0 -2 6 -32l73 3q99 0 99 -56q0 -30 -17.5 -53t-49.5 -23t-56 18h-52q6 -78 6 -148l-9 -371q0 -115 74 -115l81 5q78 0 78 -50q0 -31 -27 -45t-61 -14h-193q-26 0 -44.5 18t-20 46t4 70 t5.5 67z" />
<glyph unicode="&#xeb;" horiz-adv-x="517" d="M-19 1548q0 30 20 51.5t49.5 21.5t50.5 -20t21 -49.5t-25.5 -50.5t-55 -21t-45 19t-15.5 49zM102 436l14 598l-11 173q0 145 86 145q24 0 45 -15q8 -1 38.5 -3.5t53.5 -6.5t50 -11q58 -16 58 -55q0 -42 -60 -64q-94 32 -155 39q3 -44 3 -88l-9 -294q0 -2 6 -32l73 3 q99 0 99 -56q0 -30 -17.5 -53t-49.5 -23t-56 18h-52q6 -78 6 -148l-9 -371q0 -115 74 -115l81 5q78 0 78 -50q0 -31 -27 -45t-61 -14h-193q-26 0 -44.5 18t-20 46t4 70t5.5 67zM401 1550q0 28 22 51t50 23t48.5 -22.5t20.5 -52t-23 -49.5t-51.5 -20t-47.5 21t-19 49z" />
<glyph unicode="&#xec;" horiz-adv-x="552" d="M-29 1613q0 51 28 68q69 0 87 -9t24.5 -13t46.5 -17t65.5 -23t59.5 -26q71 -33 71 -73q0 -17 -15 -28.5t-28.5 -11.5t-34 6t-48 16t-50 18.5t-49.5 19.5t-33 13q-22 -2 -35 -2q-89 0 -89 62zM53 1309q0 48 111 47h7q263 0 263 -83q0 -11 -12 -38h-105q8 -75 8 -163 l-11 -391l15 -435v-61q0 -12 -1 -23q-2 -19 6 -31v-3l75 2q84 0 84 -51q0 -26 -20.5 -44.5t-47.5 -18.5l-68 7q-5 0 -31 -11.5t-57.5 -11.5t-52.5 20q-16 -2 -25 -2q-57 0 -76 37q0 40 32 55v8h65l4 27l-14 435l11 456q0 115 -10 218h-79.5t-53.5 11.5t-17 43.5z" />
<glyph unicode="&#xed;" horiz-adv-x="552" d="M53 1309q0 48 111 47h7q263 0 263 -83q0 -11 -12 -38h-105q8 -75 8 -163l-11 -391l15 -435v-61q0 -12 -1 -23q-2 -19 6 -31v-3l75 2q84 0 84 -51q0 -26 -20.5 -44.5t-47.5 -18.5l-68 7q-5 0 -31 -11.5t-57.5 -11.5t-52.5 20q-16 -2 -25 -2q-57 0 -76 37q0 40 32 55v8h65 l4 27l-14 435l11 456q0 115 -10 218h-79.5t-53.5 11.5t-17 43.5zM239 1534v2q2 40 182 167q71 51 86 65q78 0 78 -56q0 -1 -9 -49q-66 -27 -142.5 -79.5t-125.5 -103.5q-69 0 -69 54z" />
<glyph unicode="&#xee;" horiz-adv-x="552" d="M53 1309q0 48 111 47h7q263 0 263 -83q0 -11 -12 -38h-105q8 -75 8 -163l-11 -391l15 -435v-61q0 -12 -1 -23q-2 -19 6 -31v-3l75 2q84 0 84 -51q0 -26 -20.5 -44.5t-47.5 -18.5l-68 7q-5 0 -31 -11.5t-57.5 -11.5t-52.5 20q-16 -2 -25 -2q-57 0 -76 37q0 40 32 55v8h65 l4 27l-14 435l11 456q0 115 -10 218h-79.5t-53.5 11.5t-17 43.5zM135 1529q4 38 36 128t79.5 172.5t81.5 82.5q52 0 52 -67q0 -45 31 -124t31 -114v-52l18 -25q0 -23 -20.5 -36.5t-44.5 -13.5h-44q-17 171 -40 266q-8 -24 -22 -69.5t-22 -70.5q-24 -68 -69 -125z" />
<glyph unicode="&#xef;" horiz-adv-x="552" d="M16 1548q0 30 20 51.5t49.5 21.5t50.5 -20t21 -49.5t-25.5 -50.5t-55 -21t-45 19t-15.5 49zM53 1309q0 48 111 47h7q263 0 263 -83q0 -11 -12 -38h-105q8 -75 8 -163l-11 -391l15 -435v-61q0 -12 -1 -23q-2 -19 6 -31v-3l75 2q84 0 84 -51q0 -26 -20.5 -44.5t-47.5 -18.5 l-68 7q-5 0 -31 -11.5t-57.5 -11.5t-52.5 20q-16 -2 -25 -2q-57 0 -76 37q0 40 32 55v8h65l4 27l-14 435l11 456q0 115 -10 218h-79.5t-53.5 11.5t-17 43.5zM436 1550q0 28 22 51t50 23t48.5 -22.5t20.5 -52t-23 -49.5t-51.5 -20t-47.5 21t-19 49z" />
<glyph unicode="&#xf0;" horiz-adv-x="559" d="M80.5 386.5q-0.5 44.5 0.5 87.5t6.5 102t14 109t25 101.5t38.5 87.5q50 82 129 82q8 0 26 -2q-25 189 -48 297q-84 -9 -169 -9q-17 0 -17 30q0 47 166 68q-30 111 -56 133q-43 7 -62.5 27t-19.5 38.5t17 31t36 12.5q127 0 194 -231q74 4 110 4q17 0 17 -29 q0 -39 -105 -59q52 -242 52 -626l-9 -358q0 -116 -11.5 -154.5t-24 -64.5t-30.5 -42q-42 -37 -106 -37q-146 0 -166 199q-5 55 -5.5 92t-1 51.5t-1 59zM181 325q0 -253 68 -253q59 0 66 80q1 11 2 31.5t12 163t11 322.5t-59 216q-48 -13 -75 -145q-24 -112 -24 -306v-44 l-1 -38v-27z" />
<glyph unicode="&#xf1;" horiz-adv-x="769" d="M99 829l12 382q0 138 75 138q45 0 65 -69q28 -132 97.5 -379.5t95.5 -376.5q19 -63 49 -186.5t47 -185.5q8 444 8 1076l-3 55q0 28 10.5 44.5t35.5 16.5t41 -12q32 -24 32 -68q0 -281 -16 -722t-48 -551q-4 -1 -17 -5.5t-19 -5.5q-57 -13 -72 5t-21.5 48t-15 58.5 t-63.5 272.5q-147 645 -181 750v-306l12 -530v-232q0 -27 -14 -45.5t-39 -18.5q-67 0 -67 125zM204 1539q0 70 40.5 119.5t108.5 49.5l102 -52q9 -24 30.5 -48t43.5 -24v1q6 6 20 13q33 14 33 32l-13 45q16 32 48 32t50 -29t18 -73.5t-39.5 -84t-86 -39.5t-85.5 21.5t-62 44 t-56 60.5v2l-53 -31v-98q-34 0 -66.5 15.5t-32.5 43.5z" />
<glyph unicode="&#xf2;" horiz-adv-x="669" d="M3 1613q0 51 28 68q69 0 87 -9t24.5 -13t46.5 -17t65.5 -23t59.5 -26q71 -33 71 -73q0 -17 -15 -28.5t-28.5 -11.5t-34 6t-48 16t-50 18.5t-49.5 19.5t-33 13q-22 -2 -35 -2q-89 0 -89 62zM77 751v40q0 433 127 535q31 25 69 27q29 -10 71 -18.5t62 -17.5 q37 -17 80 -88.5t63.5 -191t20.5 -239.5v-247q0 -589 -241 -589q-222 0 -249 558q-2 53 -2 106zM190 1033l3 -120l-1 -196q0 -25 1 -59t2.5 -89.5t6 -110t10.5 -115t16 -112t22 -93.5q27 -91 71 -91q59 0 90 111q46 165 46 406l3 211q0 222 -19.5 299t-36.5 116 q-34 79 -103 79h-4q-107 0 -107 -236z" />
<glyph unicode="&#xf3;" horiz-adv-x="669" d="M77 751v40q0 433 127 535q31 25 69 27q29 -10 71 -18.5t62 -17.5q37 -17 80 -88.5t63.5 -191t20.5 -239.5v-247q0 -589 -241 -589q-222 0 -249 558q-2 53 -2 106zM188 1534v2q2 40 182 167q71 51 86 65q78 0 78 -56q0 -1 -9 -49q-66 -27 -142.5 -79.5t-125.5 -103.5 q-69 0 -69 54zM190 1033l3 -120l-1 -196q0 -25 1 -59t2.5 -89.5t6 -110t10.5 -115t16 -112t22 -93.5q27 -91 71 -91q59 0 90 111q46 165 46 406l3 211q0 222 -19.5 299t-36.5 116q-34 79 -103 79h-4q-107 0 -107 -236z" />
<glyph unicode="&#xf4;" horiz-adv-x="669" d="M77 751v40q0 433 127 535q31 25 69 27q29 -10 71 -18.5t62 -17.5q37 -17 80 -88.5t63.5 -191t20.5 -239.5v-247q0 -589 -241 -589q-222 0 -249 558q-2 53 -2 106zM167 1529q4 38 36 128t79.5 172.5t81.5 82.5q52 0 52 -67q0 -45 31 -124t31 -114v-52l18 -25 q0 -23 -20.5 -36.5t-44.5 -13.5h-44q-17 171 -40 266q-8 -24 -22 -69.5t-22 -70.5q-24 -68 -69 -125zM190 1033l3 -120l-1 -196q0 -25 1 -59t2.5 -89.5t6 -110t10.5 -115t16 -112t22 -93.5q27 -91 71 -91q59 0 90 111q46 165 46 406l3 211q0 222 -19.5 299t-36.5 116 q-34 79 -103 79h-4q-107 0 -107 -236z" />
<glyph unicode="&#xf5;" horiz-adv-x="669" d="M77 751v40q0 433 127 535q31 25 69 27q29 -10 71 -18.5t62 -17.5q37 -17 80 -88.5t63.5 -191t20.5 -239.5v-247q0 -589 -241 -589q-222 0 -249 558q-2 53 -2 106zM88 1539q0 70 40.5 119.5t108.5 49.5l102 -52q9 -24 30.5 -48t43.5 -24v1q6 6 20 13q33 14 33 32l-13 45 q16 32 48 32t50 -29t18 -73.5t-39.5 -84t-86 -39.5t-85.5 21.5t-62 44t-56 60.5v2l-53 -31v-98q-34 0 -66.5 15.5t-32.5 43.5zM190 1033l3 -120l-1 -196q0 -25 1 -59t2.5 -89.5t6 -110t10.5 -115t16 -112t22 -93.5q27 -91 71 -91q59 0 90 111q46 165 46 406l3 211 q0 222 -19.5 299t-36.5 116q-34 79 -103 79h-4q-107 0 -107 -236z" />
<glyph unicode="&#xf6;" horiz-adv-x="669" d="M48 1548q0 30 20 51.5t49.5 21.5t50.5 -20t21 -49.5t-25.5 -50.5t-55 -21t-45 19t-15.5 49zM77 751v40q0 433 127 535q31 25 69 27q29 -10 71 -18.5t62 -17.5q37 -17 80 -88.5t63.5 -191t20.5 -239.5v-247q0 -589 -241 -589q-222 0 -249 558q-2 53 -2 106zM190 1033 l3 -120l-1 -196q0 -25 1 -59t2.5 -89.5t6 -110t10.5 -115t16 -112t22 -93.5q27 -91 71 -91q59 0 90 111q46 165 46 406l3 211q0 222 -19.5 299t-36.5 116q-34 79 -103 79h-4q-107 0 -107 -236zM468 1550q0 28 22 51t50 23t48.5 -22.5t20.5 -52t-23 -49.5t-51.5 -20t-47.5 21 t-19 49z" />
<glyph unicode="&#xf7;" horiz-adv-x="714" d="M61 655q0 21 12.5 33.5t33.5 12.5h427q74 0 86.5 -17.5t12.5 -36.5q0 -47 -58 -47l-432 -10q-82 0 -82 65zM271 861q0 28 22.5 48.5t52 20.5t49.5 -23t20 -51.5t-21 -47.5t-49 -19t-51 22t-23 50zM274 438.5q0 29.5 20 50.5t49.5 21t50.5 -25.5t21 -55t-19 -45t-49 -15.5 t-51.5 20t-21.5 49.5z" />
<glyph unicode="&#xf8;" horiz-adv-x="578" d="M85 644v390q0 58 3.5 86.5t7 59t9.5 52t14.5 47t20.5 43t26 32.5q30 30 64 30t66 -18v4q22 127 46 223h74q0 -53 -19.5 -151.5t-21.5 -144.5v-60q74 -113 74 -173v-16q1 -46 14 -138.5t16 -231.5t3 -213.5t-0.5 -96t-2.5 -59.5t-5.5 -65t-10.5 -62.5t-17.5 -61t-26 -52 t-35.5 -42.5q-45 -38 -95.5 -38t-84.5 16q0 -108 -34 -208q-15 -42 -37 -42t-33 16t-11 36v2q4 42 27.5 148.5t23.5 139.5t-1.5 41.5t-3.5 14.5t-4.5 15t-7 27.5t-10.5 50t-10 69.5t-7.5 62t-5 70.5t-3 63.5t-2 71.5t-0.5 62.5zM170 780q0 -78 10.5 -180t11.5 -108 q10 86 34 247q53 356 53 541h-34l-31 28v-10q-44 -95 -44 -518zM233 131.5q0 -32.5 12 -45.5t47 -13q93 0 93 350q0 480 -37 702q-15 -112 -28 -288q-30 -424 -73 -617q-14 -56 -14 -88.5z" />
<glyph unicode="&#xf9;" horiz-adv-x="698" d="M81 1306v49q49 0 77.5 -38t28.5 -85v-991q0 -79 39.5 -144.5t116.5 -65.5q87 0 116 506v9l1 13q26 462 26 748l-1 34q0 24 11 36t42 12t46 -17t17.5 -34.5t2.5 -47.5l-14 -206l-9 -171l2 -35q-15 -72 -19.5 -247.5t-17.5 -283t-35 -189t-70.5 -135.5t-108 -54t-97.5 21.5 t-62 62t-40 87t-24 107.5q-14 107 -14 226l11 540q0 177 -25 293zM247 1624q0 51 28 68q69 0 87 -9t24.5 -13t46.5 -17t65.5 -23t59.5 -26q71 -33 71 -73q0 -17 -15 -28.5t-28.5 -11.5t-34 6t-48 16t-50 18.5t-49.5 19.5t-33 13q-22 -2 -35 -2q-89 0 -89 62z" />
<glyph unicode="&#xfa;" horiz-adv-x="698" d="M81 1306v49q49 0 77.5 -38t28.5 -85v-991q0 -79 39.5 -144.5t116.5 -65.5q87 0 116 506v9l1 13q26 462 26 748l-1 34q0 24 11 36t42 12t46 -17t17.5 -34.5t2.5 -47.5l-14 -206l-9 -171l2 -35q-15 -72 -19.5 -247.5t-17.5 -283t-35 -189t-70.5 -135.5t-108 -54t-97.5 21.5 t-62 62t-40 87t-24 107.5q-14 107 -14 226l11 540q0 177 -25 293zM296 1545v2q2 40 182 167q71 51 86 65q78 0 78 -56q0 -1 -9 -49q-66 -27 -142.5 -79.5t-125.5 -103.5q-69 0 -69 54z" />
<glyph unicode="&#xfb;" horiz-adv-x="698" d="M81 1306v49q49 0 77.5 -38t28.5 -85v-991q0 -79 39.5 -144.5t116.5 -65.5q87 0 116 506v9l1 13q26 462 26 748l-1 34q0 24 11 36t42 12t46 -17t17.5 -34.5t2.5 -47.5l-14 -206l-9 -171l2 -35q-15 -72 -19.5 -247.5t-17.5 -283t-35 -189t-70.5 -135.5t-108 -54t-97.5 21.5 t-62 62t-40 87t-24 107.5q-14 107 -14 226l11 540q0 177 -25 293zM192 1540q4 38 36 128t79.5 172.5t81.5 82.5q52 0 52 -67q0 -45 31 -124t31 -114v-52l18 -25q0 -23 -20.5 -36.5t-44.5 -13.5h-44q-17 171 -40 266q-8 -24 -22 -69.5t-22 -70.5q-24 -68 -69 -125z" />
<glyph unicode="&#xfc;" horiz-adv-x="698" d="M73 1559q0 30 20 51.5t49.5 21.5t50.5 -20t21 -49.5t-25.5 -50.5t-55 -21t-45 19t-15.5 49zM81 1306v49q49 0 77.5 -38t28.5 -85v-991q0 -79 39.5 -144.5t116.5 -65.5q87 0 116 506v9l1 13q26 462 26 748l-1 34q0 24 11 36t42 12t46 -17t17.5 -34.5t2.5 -47.5l-14 -206 l-9 -171l2 -35q-15 -72 -19.5 -247.5t-17.5 -283t-35 -189t-70.5 -135.5t-108 -54t-97.5 21.5t-62 62t-40 87t-24 107.5q-14 107 -14 226l11 540q0 177 -25 293zM493 1561q0 28 22 51t50 23t48.5 -22.5t20.5 -52t-23 -49.5t-51.5 -20t-47.5 21t-19 49z" />
<glyph unicode="&#xfd;" horiz-adv-x="580" d="M58 1288v11l46 34q63 -2 150 -317q38 -138 38 -139q8 22 32 153q61 332 128 332q19 0 34.5 -12t15.5 -31q0 -126 -61.5 -294.5t-61.5 -298.5v-617q0 -100 -27 -125q-14 -12 -43.5 -12t-49.5 45q23 45 23 347q0 57 -8 160.5t-9 139.5q-40 69 -123.5 317.5t-83.5 306.5z M246 1534v2q2 40 182 167q71 51 86 65q78 0 78 -56q0 -1 -9 -49q-66 -27 -142.5 -79.5t-125.5 -103.5q-69 0 -69 54z" />
<glyph unicode="&#xfe;" horiz-adv-x="553" d="M99 1178v309q0 61 49 61q75 0 75 -168l-7 -147q83 -12 143 -76q113 -121 113 -312q0 -128 -66.5 -224.5t-183.5 -148.5l15 -398q0 -85 -67 -85q-25 0 -37 21t-12 48zM217 571q149 106 149 248q0 75 -4.5 113t-23.5 72.5t-43 58t-76 66.5q0 -93 -1 -279t-1 -279z" />
<glyph unicode="&#xff;" horiz-adv-x="580" d="M23 1548q0 30 20 51.5t49.5 21.5t50.5 -20t21 -49.5t-25.5 -50.5t-55 -21t-45 19t-15.5 49zM58 1288v11l46 34q63 -2 150 -317q38 -138 38 -139q8 22 32 153q61 332 128 332q19 0 34.5 -12t15.5 -31q0 -126 -61.5 -294.5t-61.5 -298.5v-617q0 -100 -27 -125 q-14 -12 -43.5 -12t-49.5 45q23 45 23 347q0 57 -8 160.5t-9 139.5q-40 69 -123.5 317.5t-83.5 306.5zM443 1550q0 28 22 51t50 23t48.5 -22.5t20.5 -52t-23 -49.5t-51.5 -20t-47.5 21t-19 49z" />
<glyph unicode="&#x152;" horiz-adv-x="1147" d="M77 761.5q0 99.5 0.5 133t3.5 97.5t8 109.5t16 108t26 106.5t39 91.5t54 76.5q71 67 165 67q181 0 266 -57v31h325q47 -26 47 -51q0 -48 -60 -48l-218 7q0 -69 14 -207t14 -208l-4 -105q0 -33 5 -57h62l9 -2l45 1q41 0 70 -37q0 -64 -56 -64l-100 4q-19 0 -28 -1 q-1 -123 5.5 -351.5t6.5 -325.5q103 7 133 7v-2h33q136 0 136 -60v-41l-347 -6q-24 0 -48.5 13t-24.5 35v7q-74 -24 -126 -24t-115.5 16t-110.5 42t-84.5 67.5t-63 85.5t-43.5 103.5t-28.5 113t-16.5 122.5q-9 103 -9 202.5zM171 751q14 -29 24 -199q20 -314 84 -320 q99 -120 241 -120q72 0 122 17.5t50 38.5q0 217 -18 622.5t-21 580.5q-67 78 -233 78q-109 0 -164 -91q-55 -89 -67 -174q-18 -126 -18 -227l1 -137q0 -46 -1 -69z" />
<glyph unicode="&#x153;" horiz-adv-x="1148" d="M79 714v37q0 322 37 458q32 116 60 142.5t58.5 26.5t50.5 -25q30 -9 70.5 -16t60.5 -12q54 -13 101 -88q88 -139 88 -439v-247q0 -589 -264 -589q-66 0 -115.5 49.5t-76 120.5t-43.5 168q-26 148 -26 326l2 78q0 10 -3 10zM191 717q0 -147 17 -323q34 -347 125 -347 q43 0 75 44.5t48.5 104.5t25.5 140q15 121 15 228l-22 477v36q-2 75 -49 133.5t-117 58.5h-72q-37 -157 -37 -363zM735 36v54q9 22 9 84l-9 262l13 598l-10 173q0 145 84 145q23 0 45 -15q7 -1 38 -3.5t54 -6.5t50 -11q58 -17 58 -55q0 -41 -60 -64q-95 32 -155 39 q3 -43 3 -88l-9 -294q0 -2 6 -32l73 3q99 0 99 -56q0 -30 -18 -53t-49.5 -23t-55.5 18h-52q6 -78 6 -148l-9 -371q0 -115 74 -115l81 5q78 0 78 -50q0 -31 -27 -45t-61 -14h-193q-26 0 -44.5 18.5t-18.5 44.5z" />
<glyph unicode="&#x178;" horiz-adv-x="522" d="M-8 1755q0 30 20 51.5t49.5 21.5t50.5 -20t21 -49.5t-25.5 -50.5t-55 -21t-45 19t-15.5 49zM53 1513q0 33 65 33q15 0 31 -12t17 -27q20 -236 102 -501q4 18 9.5 85.5t13 138.5t19.5 144q27 165 81.5 165t54.5 -22q0 -115 -49 -343t-49 -346l6 -71v-31l-1 -543l-1 -102 v-46q0 -27 -18 -43.5t-40.5 -16.5t-38 14.5t-15.5 35.5l10 396q0 60 -19.5 177.5t-19.5 189t-24.5 174t-54.5 184.5q-79 214 -79 367zM412 1757q0 28 22 51t50 23t48.5 -22.5t20.5 -52t-23 -49.5t-51.5 -20t-47.5 21t-19 49z" />
<glyph unicode="&#x2c6;" horiz-adv-x="501" d="M84 976q4 38 36 128t79.5 172.5t81.5 82.5q52 0 52 -67q0 -45 31 -124t31 -114v-52l18 -25q0 -23 -20.5 -36.5t-44.5 -13.5h-44q-17 171 -40 266q-8 -24 -22 -69.5t-22 -70.5q-24 -68 -69 -125z" />
<glyph unicode="&#x2dc;" horiz-adv-x="670" d="M93 1055q0 70 40.5 119.5t108.5 49.5l102 -52q9 -24 30.5 -48t43.5 -24v1q6 6 20 13q33 14 33 32l-13 45q16 32 48 32t50 -29t18 -73.5t-39.5 -84t-86 -39.5t-85.5 21.5t-62 44t-56 60.5v2l-53 -31v-98q-34 0 -66.5 15.5t-32.5 43.5z" />
<glyph unicode="&#x2000;" horiz-adv-x="1110" />
<glyph unicode="&#x2001;" horiz-adv-x="2220" />
<glyph unicode="&#x2002;" horiz-adv-x="1110" />
<glyph unicode="&#x2003;" horiz-adv-x="2220" />
<glyph unicode="&#x2004;" horiz-adv-x="740" />
<glyph unicode="&#x2005;" horiz-adv-x="555" />
<glyph unicode="&#x2006;" horiz-adv-x="370" />
<glyph unicode="&#x2007;" horiz-adv-x="370" />
<glyph unicode="&#x2008;" horiz-adv-x="277" />
<glyph unicode="&#x2009;" horiz-adv-x="444" />
<glyph unicode="&#x200a;" horiz-adv-x="123" />
<glyph unicode="&#x2010;" horiz-adv-x="649" d="M104 760q0 23 119 29q179 9 230 9q93 0 93 -59q0 -23 -119 -29q-179 -9 -231 -9q-92 0 -92 59z" />
<glyph unicode="&#x2011;" horiz-adv-x="649" d="M104 760q0 23 119 29q179 9 230 9q93 0 93 -59q0 -23 -119 -29q-179 -9 -231 -9q-92 0 -92 59z" />
<glyph unicode="&#x2012;" horiz-adv-x="649" d="M104 760q0 23 119 29q179 9 230 9q93 0 93 -59q0 -23 -119 -29q-179 -9 -231 -9q-92 0 -92 59z" />
<glyph unicode="&#x2013;" horiz-adv-x="895" d="M107 691q0 21 12.5 33.5t33.5 12.5h171l188 4q280 0 280 -58q0 -21 -13.5 -34t-34.5 -13l-555 10q-82 0 -82 45z" />
<glyph unicode="&#x2014;" horiz-adv-x="1110" d="M108 734.5q0 19.5 12.5 32t33.5 12.5h612q239 0 239 -54q0 -28 -45 -36.5t-127 -8.5h-602q-93 0 -113 24q-10 11 -10 30.5z" />
<glyph unicode="&#x2018;" horiz-adv-x="433" d="M91 1279v6l4 13q0 48 26 113t71 115.5t89 50.5h60v-71q-15 -8 -48 -38.5t-40 -39.5q-20 -27 -25 -47q58 -43 58 -91t-31.5 -73t-69 -25t-58 23t-36.5 64z" />
<glyph unicode="&#x2019;" horiz-adv-x="438" d="M90 1193v71q8 8 40 34q67 53 74 91q-59 43 -59 91t31.5 73t69 25t58.5 -23t36 -64v-6l-4 -14q0 -47 -25.5 -112t-70.5 -115.5t-89 -50.5h-61z" />
<glyph unicode="&#x201a;" horiz-adv-x="425" d="M82 -130q8 8 40 34q67 54 74 92q-59 43 -59 90.5t31.5 72.5t69 25t58.5 -22.5t36 -63.5v-7l-3 -14q0 -47 -26 -112t-71 -116t-89 -51h-61v72z" />
<glyph unicode="&#x201c;" horiz-adv-x="646" d="M91 1279v6l4 13q0 48 26 113t71 115.5t89 50.5h60v-71q-15 -8 -48 -38.5t-40 -39.5q-20 -27 -25 -47q58 -43 58 -91t-31.5 -73t-69 -25t-58 23t-36.5 64zM304 1280v6l4 13q0 48 26 113t71 115.5t89 50.5h60v-71q-9 -9 -30 -27l-36 -30q-39 -32 -47 -68q58 -44 58 -102 q0 -57 -65 -80q-18 -7 -46 -7q-50 0 -84 87z" />
<glyph unicode="&#x201d;" horiz-adv-x="685" d="M90 1196v71q8 8 40 33q67 54 74 92q-59 43 -59 91t31.5 73t69 25t58.5 -23t36 -64v-6l-4 -14q0 -47 -25.5 -112t-70.5 -115.5t-89 -50.5h-61zM336 1194v72q15 8 48 38.5t40 39.5q22 30 25 47q-58 43 -58 91t31.5 73t69.5 25q66 0 93 -87v-19q0 -47 -26.5 -112.5 t-72 -116.5t-90.5 -51h-60z" />
<glyph unicode="&#x201e;" horiz-adv-x="649" d="M79 -164q11 23 63 81t56 79q-59 43 -59 91t31.5 72.5t70.5 24.5t65 -30.5t26 -75.5t-26 -109.5t-74.5 -115t-99.5 -50.5zM309 -130l23 18q23 19 30 26l24 24q30 30 36 58q-58 40 -58 101q0 37 31.5 62t70 25t64.5 -30.5t26 -73.5t-24.5 -108.5t-70 -119t-92.5 -53.5h-60 v71z" />
<glyph unicode="&#x2022;" horiz-adv-x="630" d="M102 727q0 40 14 82q16 49 55 111q14 21 60 56t67 35q67 0 116.5 -23.5t73.5 -61.5q46 -71 46 -147q0 -126 -65 -215q-57 -79 -149.5 -79t-154.5 61t-62 119z" />
<glyph unicode="&#x2026;" horiz-adv-x="934" d="M105 42.5q0 29.5 23 53.5t53 24t52 -24t22 -55.5t-23 -52t-54.5 -20.5t-52 22.5t-20.5 52zM394 42.5q0 29.5 23 53.5t53 24t52 -24t22 -55.5t-23 -52t-54.5 -20.5t-52 22.5t-20.5 52zM684 42.5q0 29.5 23 53.5t53 24t52 -24t22 -55.5t-23 -52t-54.5 -20.5t-52 22.5 t-20.5 52z" />
<glyph unicode="&#x202f;" horiz-adv-x="444" />
<glyph unicode="&#x2039;" horiz-adv-x="553" d="M65 698q2 56 106 282t111.5 252.5t14.5 56t14 51.5t19 50q24 57 58 57l7 -1l45 -35q-17 -134 -140 -374q-118 -232 -118 -335q0 -15 137.5 -292t173.5 -341q-1 -9 0 -21t0 -24t-3 -22q-4 -24 -25 -24l-44 4q-107 163 -216.5 408.5t-139.5 307.5z" />
<glyph unicode="&#x203a;" horiz-adv-x="578" d="M59 49q70 129 202.5 384t132.5 269q0 102 -90 280q-112 218 -139 295t-28 134l45 35v-2q44 -21 60 -55t20 -45q10 -24 25 -81.5t119 -281.5t106 -283l-357 -717l-42 -4q-25 0 -39 22.5t-15 49.5z" />
<glyph unicode="&#x205f;" horiz-adv-x="555" />
<glyph unicode="&#x20ac;" horiz-adv-x="739" d="M60 840.5q0 25.5 10.5 31t34.5 5.5h45l-2 161q0 109 14 188q-6 33 -6 63q0 126 94 201t232 75q49 0 96 -27.5t47 -72.5q0 -22 -17 -34t-38.5 -12t-56 14.5t-61 14.5t-58.5 -9.5t-53 -24t-36 -40t-22.5 -48t-11.5 -58.5q-6 -55 -6 -171t-11 -218l65 1q137 0 137 -28 q0 -19 -14 -31q-50 -6 -188 -10v-86q149 2 195 6q14 -12 14 -31q0 -48 -158 -48l-40 1q36 -445 69 -493q46 -67 141 -67t145 59q35 0 65 10v-27q0 -62 -35 -101q-60 -67 -189 -67q-255 0 -290 449q-4 52 -5 88q-5 106 -7 150h-79q-13 11 -13 33q0 37 65 37h23v84h-76 q-19 7 -19 32.5z" />
<glyph unicode="&#x2122;" horiz-adv-x="1080" d="M66 1520v54q245 21 336 21l63 -4l38 -39v-5q2 20 28.5 44.5t50.5 24.5t56 -41q-4 -13 -4 -53.5t45 -197t50 -195.5q60 174 113 419q10 51 17.5 60t15.5 17q14 14 39 14t42 -15t17 -37l-22 -434l14 -360v-23q0 -145 -76 -145q-23 0 -38 13t-15 35l11 235q0 44 -3.5 124.5 t-4.5 106.5q-3 -11 -12 -32q-17 -40 -17 -71v-9q-10 -110 -52 -161q-17 -21 -38 -21q-66 0 -108 278q-19 122 -21 131q-4 -86 -4 -258l12 -203q0 -172 -77 -172q-48 0 -48 69l13 220l-2 279q0 200 15 340q-12 -44 -93 -44h-56q-5 -49 -5 -116l13 -488q0 -95 -5 -162l8 -28 q0 -44 -69 -62h-54q11 34 11 158l-10 411l6 202q0 47 -4 84q-81 -9 -94 -9q-82 0 -82 45z" />
<glyph unicode="&#x25fc;" horiz-adv-x="1340" d="M0 0v1340h1340v-1340h-1340z" />
</font>
</defs>
</svg>
